<?xml version="1.0" standalone="no"?>
 <!DOCTYPE svg PUBLIC "-//W3C//DTD SVG 1.1//EN" 
 "http://www.w3.org/Graphics/SVG/1.1/DTD/svg11.dtd"> 
<svg xmlns="http://www.w3.org/2000/svg" version="1.1" 
    width="15.0012cm" height="21.0007cm" viewBox="0 0 59060 82680 ">
<title>SVG Picture created as relai-bistable-commande-tension.sch.svg date 2017/04/15 19:55:48 </title>
  <desc>Picture generated by Eeschema-SVG </desc>
<g style="fill:#000000; fill-opacity:1;stroke:#000000; stroke-opacity:1;
stroke-linecap:round; stroke-linejoin:round; "
 transform="translate(0 0) scale(1 1)">
</g>
<g style="fill:#000000; fill-opacity:0.0; 
stroke:#000000; stroke-width:0; stroke-opacity:1; 
stroke-linecap:round; stroke-linejoin:round;">
</g>
<g style="fill:#840000; fill-opacity:0.0; 
stroke:#840000; stroke-width:0; stroke-opacity:1; 
stroke-linecap:round; stroke-linejoin:round;">
</g>
<g style="fill:#840000; fill-opacity:0.0; 
stroke:#840000; stroke-width:100; stroke-opacity:1; 
stroke-linecap:round; stroke-linejoin:round;">
<rect x="22000" y="35100" width="2000" height="800" rx="0" />
</g>
<g style="fill:#840000; fill-opacity:0.0; 
stroke:#840000; stroke-width:60; stroke-opacity:1; 
stroke-linecap:round; stroke-linejoin:round;">
<path d="M24000 35500
L24500 35500
" />
<path d="M22000 35500
L21500 35500
" />
</g>
<g style="fill:#008484; fill-opacity:0.0; 
stroke:#008484; stroke-width:60; stroke-opacity:1; 
stroke-linecap:round; stroke-linejoin:round;">
<path d="M22910 34760
L22750 34520
" />
<path d="M22630 34760
L22630 34260
L22820 34260
L22870 34280
L22890 34300
L22910 34350
L22910 34420
L22890 34470
L22870 34490
L22820 34520
L22630 34520
" />
<path d="M23080 34260
L23390 34260
L23220 34450
L23300 34450
L23340 34470
L23370 34490
L23390 34540
L23390 34660
L23370 34710
L23340 34730
L23300 34760
L23150 34760
L23110 34730
L23080 34710
" />
<path d="M22020 36300
L22040 36280
L22090 36260
L22210 36260
L22250 36280
L22280 36300
L22300 36350
L22300 36400
L22280 36470
L21990 36760
L22300 36760
" />
<path d="M22520 36710
L22540 36730
L22520 36760
L22500 36730
L22520 36710
L22520 36760
" />
<path d="M22740 36300
L22760 36280
L22810 36260
L22930 36260
L22970 36280
L23000 36300
L23020 36350
L23020 36400
L23000 36470
L22710 36760
L23020 36760
" />
<path d="M23240 36760
L23240 36260
" />
<path d="M23290 36570
L23430 36760
" />
<path d="M23430 36420
L23240 36610
" />
<path d="M23620 36760
L23730 36760
L23730 36660
L23690 36640
L23640 36590
L23620 36520
L23620 36400
L23640 36330
L23690 36280
L23760 36260
L23850 36260
L23920 36280
L23970 36330
L24000 36400
L24000 36520
L23970 36590
L23920 36640
L23880 36660
L23880 36760
L24000 36760
" />
</g>
<g style="fill:#008484; fill-opacity:0.0; 
stroke:#008484; stroke-width:0; stroke-opacity:1; 
stroke-linecap:round; stroke-linejoin:round;">
</g>
<g style="fill:#840000; fill-opacity:0.0; 
stroke:#840000; stroke-width:0; stroke-opacity:1; 
stroke-linecap:round; stroke-linejoin:round;">
</g>
<g style="fill:#840000; fill-opacity:0.0; 
stroke:#840000; stroke-width:60; stroke-opacity:1; 
stroke-linecap:round; stroke-linejoin:round;">
<polyline fill="none;"
points="31800,31500
31500,32000
" /> 
<polyline fill="none;"
points="31500,31000
31500,32000
" /> 
<polyline fill="none;"
points="31500,32000
31200,31500
" /> 
</g>
<g style="fill:#008484; fill-opacity:0.0; 
stroke:#008484; stroke-width:60; stroke-opacity:1; 
stroke-linecap:round; stroke-linejoin:round;">
<path d="M30490 32400
L30870 32400
" />
<path d="M30680 32590
L30680 32210
" />
<path d="M31060 32090
L31370 32090
L31200 32280
L31280 32280
L31320 32300
L31350 32320
L31370 32370
L31370 32490
L31350 32540
L31320 32560
L31280 32590
L31130 32590
L31090 32560
L31060 32540
" />
<path d="M31590 32540
L31610 32560
L31590 32590
L31570 32560
L31590 32540
L31590 32590
" />
<path d="M31780 32090
L32090 32090
L31920 32280
L32000 32280
L32040 32300
L32070 32320
L32090 32370
L32090 32490
L32070 32540
L32040 32560
L32000 32590
L31850 32590
L31810 32560
L31780 32540
" />
<path d="M32240 32090
L32400 32590
L32570 32090
" />
</g>
<g style="fill:#008484; fill-opacity:0.0; 
stroke:#008484; stroke-width:0; stroke-opacity:1; 
stroke-linecap:round; stroke-linejoin:round;">
</g>
<g style="fill:#840000; fill-opacity:0.0; 
stroke:#840000; stroke-width:0; stroke-opacity:1; 
stroke-linecap:round; stroke-linejoin:round;">
</g>
<g style="fill:#840000; fill-opacity:0.0; 
stroke:#840000; stroke-width:60; stroke-opacity:1; 
stroke-linecap:round; stroke-linejoin:round;">
<polyline fill="none;"
points="31500,37500
31500,38000
32000,38000
31500,38500
31000,38000
31500,38000
" /> 
</g>
<g style="fill:#008484; fill-opacity:0.0; 
stroke:#008484; stroke-width:60; stroke-opacity:1; 
stroke-linecap:round; stroke-linejoin:round;">
<path d="M31120 38780
L31070 38760
L31000 38760
L30930 38780
L30880 38830
L30860 38880
L30840 38970
L30840 39040
L30860 39140
L30880 39180
L30930 39230
L31000 39260
L31050 39260
L31120 39230
L31140 39210
L31140 39040
L31050 39040
" />
<path d="M31360 39260
L31360 38760
L31640 39260
L31640 38760
" />
<path d="M31880 39260
L31880 38760
L32000 38760
L32070 38780
L32120 38830
L32140 38880
L32160 38970
L32160 39040
L32140 39140
L32120 39180
L32070 39230
L32000 39260
L31880 39260
" />
</g>
<g style="fill:#008484; fill-opacity:0.0; 
stroke:#008484; stroke-width:0; stroke-opacity:1; 
stroke-linecap:round; stroke-linejoin:round;">
</g>
<g style="fill:#840000; fill-opacity:0.0; 
stroke:#840000; stroke-width:0; stroke-opacity:1; 
stroke-linecap:round; stroke-linejoin:round;">
</g>
<g style="fill:#840000; fill-opacity:0.0; 
stroke:#840000; stroke-width:80; stroke-opacity:1; 
stroke-linecap:round; stroke-linejoin:round;">
<polyline fill="none;"
points="30500,30500
30500,29500
" /> 
</g>
<g style="fill:#840000; fill-opacity:0.0; 
stroke:#840000; stroke-width:60; stroke-opacity:1; 
stroke-linecap:round; stroke-linejoin:round;">
<polyline fill="none;"
points="29500,30000
30500,30000
" /> 
</g>
<g style="fill:#840000; fill-opacity:0.0; 
stroke:#840000; stroke-width:80; stroke-opacity:1; 
stroke-linecap:round; stroke-linejoin:round;">
<polyline fill="none;"
points="29500,30500
29500,29500
30500,30000
29500,30500
" /> 
</g>
<g style="fill:#840000; fill-opacity:0.0; 
stroke:#840000; stroke-width:60; stroke-opacity:1; 
stroke-linecap:round; stroke-linejoin:round;">
<path d="M30500 30000
L31500 30000
" />
<path d="M29500 30000
L28500 30000
" />
</g>
<g style="fill:#008484; fill-opacity:0.0; 
stroke:#008484; stroke-width:60; stroke-opacity:1; 
stroke-linecap:round; stroke-linejoin:round;">
<path d="M29630 29190
L29630 28690
L29750 28690
L29820 28710
L29870 28760
L29890 28810
L29910 28900
L29910 28970
L29890 29070
L29870 29110
L29820 29160
L29750 29190
L29630 29190
" />
<path d="M30110 28730
L30130 28710
L30180 28690
L30300 28690
L30340 28710
L30370 28730
L30390 28780
L30390 28830
L30370 28900
L30080 29190
L30390 29190
" />
</g>
<g style="fill:#008484; fill-opacity:0.0; 
stroke:#008484; stroke-width:0; stroke-opacity:1; 
stroke-linecap:round; stroke-linejoin:round;">
</g>
<g style="fill:#840000; fill-opacity:0.0; 
stroke:#840000; stroke-width:0; stroke-opacity:1; 
stroke-linecap:round; stroke-linejoin:round;">
</g>
<g style="fill:#FFFFC2; fill-opacity:0.0; 
stroke:#FFFFC2; stroke-width:0; stroke-opacity:1; 
stroke-linecap:round; stroke-linejoin:round;">
</g>
<g style="fill:#FFFFC2; fill-opacity:0.6; 
stroke:#FFFFC2; stroke-width:0; stroke-opacity:1; 
stroke-linecap:round; stroke-linejoin:round;">
<rect x="26000" y="47000" width="14500" height="7000" rx="0" />
</g>
<g style="fill:#840000; fill-opacity:0.6; 
stroke:#840000; stroke-width:0; stroke-opacity:1; 
stroke-linecap:round; stroke-linejoin:round;">
</g>
<g style="fill:#840000; fill-opacity:0.0; 
stroke:#840000; stroke-width:60; stroke-opacity:1; 
stroke-linecap:round; stroke-linejoin:round;">
<rect x="26000" y="47000" width="14500" height="7000" rx="0" />
<path d="M26500 54000
L26500 56000
" />
</g>
<g style="fill:#008484; fill-opacity:0.0; 
stroke:#008484; stroke-width:60; stroke-opacity:1; 
stroke-linecap:round; stroke-linejoin:round;">
<path d="M26730 53220
L26730 53500
" />
<path d="M26730 53360
L26230 53360
L26300 53410
L26350 53460
L26370 53500
" />
<path d="M26230 52910
L26230 52860
L26250 52810
L26270 52790
L26320 52760
L26420 52740
L26540 52740
L26630 52760
L26680 52790
L26700 52810
L26730 52860
L26730 52910
L26700 52950
L26680 52980
L26630 53000
L26540 53020
L26420 53020
L26320 53000
L26270 52980
L26250 52950
L26230 52910
" />
</g>
<g style="fill:#840000; fill-opacity:0.0; 
stroke:#840000; stroke-width:60; stroke-opacity:1; 
stroke-linecap:round; stroke-linejoin:round;">
<path d="M27500 54000
L27500 56000
" />
</g>
<g style="fill:#008484; fill-opacity:0.0; 
stroke:#008484; stroke-width:60; stroke-opacity:1; 
stroke-linecap:round; stroke-linejoin:round;">
<path d="M27730 53220
L27730 53500
" />
<path d="M27730 53360
L27230 53360
L27300 53410
L27350 53460
L27370 53500
" />
<path d="M27730 52740
L27730 53020
" />
<path d="M27730 52880
L27230 52880
L27300 52930
L27350 52980
L27370 53020
" />
</g>
<g style="fill:#840000; fill-opacity:0.0; 
stroke:#840000; stroke-width:60; stroke-opacity:1; 
stroke-linecap:round; stroke-linejoin:round;">
<path d="M28500 54000
L28500 56000
" />
</g>
<g style="fill:#008484; fill-opacity:0.0; 
stroke:#008484; stroke-width:60; stroke-opacity:1; 
stroke-linecap:round; stroke-linejoin:round;">
<path d="M28730 53220
L28730 53500
" />
<path d="M28730 53360
L28230 53360
L28300 53410
L28350 53460
L28370 53500
" />
<path d="M28270 53020
L28250 53000
L28230 52950
L28230 52830
L28250 52790
L28270 52760
L28320 52740
L28370 52740
L28440 52760
L28730 53050
L28730 52740
" />
</g>
<g style="fill:#840000; fill-opacity:0.0; 
stroke:#840000; stroke-width:60; stroke-opacity:1; 
stroke-linecap:round; stroke-linejoin:round;">
<path d="M29500 54000
L29500 56000
" />
</g>
<g style="fill:#008484; fill-opacity:0.0; 
stroke:#008484; stroke-width:60; stroke-opacity:1; 
stroke-linecap:round; stroke-linejoin:round;">
<path d="M29730 53220
L29730 53500
" />
<path d="M29730 53360
L29230 53360
L29300 53410
L29350 53460
L29370 53500
" />
<path d="M29230 53050
L29230 52740
L29420 52910
L29420 52830
L29440 52790
L29460 52760
L29510 52740
L29630 52740
L29680 52760
L29700 52790
L29730 52830
L29730 52980
L29700 53020
L29680 53050
" />
</g>
<g style="fill:#840000; fill-opacity:0.0; 
stroke:#840000; stroke-width:60; stroke-opacity:1; 
stroke-linecap:round; stroke-linejoin:round;">
<path d="M33500 47000
L33500 45000
" />
</g>
<g style="fill:#008484; fill-opacity:0.0; 
stroke:#008484; stroke-width:60; stroke-opacity:1; 
stroke-linecap:round; stroke-linejoin:round;">
<path d="M33270 47780
L33250 47760
L33230 47710
L33230 47590
L33250 47550
L33270 47520
L33320 47500
L33370 47500
L33440 47520
L33730 47810
L33730 47500
" />
</g>
<g style="fill:#840000; fill-opacity:0.0; 
stroke:#840000; stroke-width:60; stroke-opacity:1; 
stroke-linecap:round; stroke-linejoin:round;">
<path d="M32500 47000
L32500 45000
" />
</g>
<g style="fill:#008484; fill-opacity:0.0; 
stroke:#008484; stroke-width:60; stroke-opacity:1; 
stroke-linecap:round; stroke-linejoin:round;">
<path d="M32230 47810
L32230 47500
L32420 47670
L32420 47590
L32440 47550
L32460 47520
L32510 47500
L32630 47500
L32680 47520
L32700 47550
L32730 47590
L32730 47740
L32700 47780
L32680 47810
" />
</g>
<g style="fill:#840000; fill-opacity:0.0; 
stroke:#840000; stroke-width:60; stroke-opacity:1; 
stroke-linecap:round; stroke-linejoin:round;">
<path d="M31500 47000
L31500 45000
" />
</g>
<g style="fill:#008484; fill-opacity:0.0; 
stroke:#008484; stroke-width:60; stroke-opacity:1; 
stroke-linecap:round; stroke-linejoin:round;">
<path d="M31390 47550
L31730 47550
" />
<path d="M31200 47670
L31560 47780
L31560 47480
" />
</g>
<g style="fill:#840000; fill-opacity:0.0; 
stroke:#840000; stroke-width:60; stroke-opacity:1; 
stroke-linecap:round; stroke-linejoin:round;">
<path d="M30500 47000
L30500 45000
" />
</g>
<g style="fill:#008484; fill-opacity:0.0; 
stroke:#008484; stroke-width:60; stroke-opacity:1; 
stroke-linecap:round; stroke-linejoin:round;">
<path d="M30230 47520
L30230 47760
L30460 47780
L30440 47760
L30420 47710
L30420 47590
L30440 47550
L30460 47520
L30510 47500
L30630 47500
L30680 47520
L30700 47550
L30730 47590
L30730 47710
L30700 47760
L30680 47780
" />
</g>
<g style="fill:#840000; fill-opacity:0.0; 
stroke:#840000; stroke-width:60; stroke-opacity:1; 
stroke-linecap:round; stroke-linejoin:round;">
<path d="M29500 47000
L29500 45000
" />
</g>
<g style="fill:#008484; fill-opacity:0.0; 
stroke:#008484; stroke-width:60; stroke-opacity:1; 
stroke-linecap:round; stroke-linejoin:round;">
<path d="M29230 47550
L29230 47640
L29250 47690
L29270 47710
L29350 47760
L29440 47780
L29630 47780
L29680 47760
L29700 47740
L29730 47690
L29730 47590
L29700 47550
L29680 47520
L29630 47500
L29510 47500
L29460 47520
L29440 47550
L29420 47590
L29420 47690
L29440 47740
L29460 47760
L29510 47780
" />
</g>
<g style="fill:#840000; fill-opacity:0.0; 
stroke:#840000; stroke-width:60; stroke-opacity:1; 
stroke-linecap:round; stroke-linejoin:round;">
<path d="M28500 47000
L28500 45000
" />
</g>
<g style="fill:#008484; fill-opacity:0.0; 
stroke:#008484; stroke-width:60; stroke-opacity:1; 
stroke-linecap:round; stroke-linejoin:round;">
<path d="M28230 47810
L28230 47480
L28730 47690
" />
</g>
<g style="fill:#840000; fill-opacity:0.0; 
stroke:#840000; stroke-width:60; stroke-opacity:1; 
stroke-linecap:round; stroke-linejoin:round;">
<path d="M27500 47000
L27500 45000
" />
</g>
<g style="fill:#008484; fill-opacity:0.0; 
stroke:#008484; stroke-width:60; stroke-opacity:1; 
stroke-linecap:round; stroke-linejoin:round;">
<path d="M27440 47690
L27420 47740
L27390 47760
L27350 47780
L27320 47780
L27270 47760
L27250 47740
L27230 47690
L27230 47590
L27250 47550
L27270 47520
L27320 47500
L27350 47500
L27390 47520
L27420 47550
L27440 47590
L27440 47690
L27460 47740
L27490 47760
L27540 47780
L27630 47780
L27680 47760
L27700 47740
L27730 47690
L27730 47590
L27700 47550
L27680 47520
L27630 47500
L27540 47500
L27490 47520
L27460 47550
L27440 47590
" />
</g>
<g style="fill:#840000; fill-opacity:0.0; 
stroke:#840000; stroke-width:60; stroke-opacity:1; 
stroke-linecap:round; stroke-linejoin:round;">
<path d="M26500 47000
L26500 45000
" />
</g>
<g style="fill:#008484; fill-opacity:0.0; 
stroke:#008484; stroke-width:60; stroke-opacity:1; 
stroke-linecap:round; stroke-linejoin:round;">
<path d="M26730 47740
L26730 47640
L26700 47590
L26680 47570
L26610 47520
L26510 47500
L26320 47500
L26270 47520
L26250 47550
L26230 47590
L26230 47690
L26250 47740
L26270 47760
L26320 47780
L26440 47780
L26490 47760
L26510 47740
L26540 47690
L26540 47590
L26510 47550
L26490 47520
L26440 47500
" />
</g>
<g style="fill:#840000; fill-opacity:0.0; 
stroke:#840000; stroke-width:60; stroke-opacity:1; 
stroke-linecap:round; stroke-linejoin:round;">
<path d="M30500 54000
L30500 56000
" />
</g>
<g style="fill:#008484; fill-opacity:0.0; 
stroke:#008484; stroke-width:60; stroke-opacity:1; 
stroke-linecap:round; stroke-linejoin:round;">
<path d="M30580 53500
L30580 53270
" />
<path d="M30730 53550
L30230 53390
L30730 53220
" />
<path d="M30230 52960
L30230 52910
L30250 52860
L30270 52840
L30320 52810
L30420 52790
L30540 52790
L30630 52810
L30680 52840
L30700 52860
L30730 52910
L30730 52960
L30700 53000
L30680 53030
L30630 53050
L30540 53070
L30420 53070
L30320 53050
L30270 53030
L30250 53000
L30230 52960
" />
</g>
<g style="fill:#840000; fill-opacity:0.0; 
stroke:#840000; stroke-width:60; stroke-opacity:1; 
stroke-linecap:round; stroke-linejoin:round;">
<path d="M31500 54000
L31500 56000
" />
</g>
<g style="fill:#008484; fill-opacity:0.0; 
stroke:#008484; stroke-width:60; stroke-opacity:1; 
stroke-linecap:round; stroke-linejoin:round;">
<path d="M31580 53500
L31580 53270
" />
<path d="M31730 53550
L31230 53390
L31730 53220
" />
<path d="M31730 52790
L31730 53070
" />
<path d="M31730 52930
L31230 52930
L31300 52980
L31350 53030
L31370 53070
" />
</g>
<g style="fill:#840000; fill-opacity:0.0; 
stroke:#840000; stroke-width:60; stroke-opacity:1; 
stroke-linecap:round; stroke-linejoin:round;">
<path d="M32500 54000
L32500 56000
" />
</g>
<g style="fill:#008484; fill-opacity:0.0; 
stroke:#008484; stroke-width:60; stroke-opacity:1; 
stroke-linecap:round; stroke-linejoin:round;">
<path d="M32580 53500
L32580 53270
" />
<path d="M32730 53550
L32230 53390
L32730 53220
" />
<path d="M32270 53070
L32250 53050
L32230 53000
L32230 52880
L32250 52840
L32270 52810
L32320 52790
L32370 52790
L32440 52810
L32730 53100
L32730 52790
" />
</g>
<g style="fill:#840000; fill-opacity:0.0; 
stroke:#840000; stroke-width:60; stroke-opacity:1; 
stroke-linecap:round; stroke-linejoin:round;">
<path d="M33500 54000
L33500 56000
" />
</g>
<g style="fill:#008484; fill-opacity:0.0; 
stroke:#008484; stroke-width:60; stroke-opacity:1; 
stroke-linecap:round; stroke-linejoin:round;">
<path d="M33580 53500
L33580 53270
" />
<path d="M33730 53550
L33230 53390
L33730 53220
" />
<path d="M33230 53100
L33230 52790
L33420 52960
L33420 52880
L33440 52840
L33460 52810
L33510 52790
L33630 52790
L33680 52810
L33700 52840
L33730 52880
L33730 53030
L33700 53070
L33680 53100
" />
</g>
<g style="fill:#840000; fill-opacity:0.0; 
stroke:#840000; stroke-width:60; stroke-opacity:1; 
stroke-linecap:round; stroke-linejoin:round;">
<path d="M40500 48000
L42500 48000
" />
</g>
<g style="fill:#008484; fill-opacity:0.0; 
stroke:#008484; stroke-width:60; stroke-opacity:1; 
stroke-linecap:round; stroke-linejoin:round;">
<path d="M38990 47960
L39060 47990
L39080 48010
L39100 48060
L39100 48130
L39080 48180
L39060 48200
L39010 48230
L38820 48230
L38820 47730
L38990 47730
L39030 47750
L39060 47770
L39080 47820
L39080 47870
L39060 47920
L39030 47940
L38990 47960
L38820 47960
" />
<path d="M39560 48230
L39320 48230
L39320 47730
" />
<path d="M39720 48230
L39720 47730
" />
<path d="M40000 48230
L39790 47940
" />
<path d="M40000 47730
L39720 48010
" />
</g>
<g style="fill:#840000; fill-opacity:0.0; 
stroke:#840000; stroke-width:60; stroke-opacity:1; 
stroke-linecap:round; stroke-linejoin:round;">
<path d="M34500 47000
L34500 45000
" />
</g>
<g style="fill:#008484; fill-opacity:0.0; 
stroke:#008484; stroke-width:60; stroke-opacity:1; 
stroke-linecap:round; stroke-linejoin:round;">
<path d="M34250 48540
L34230 48590
L34230 48660
L34250 48730
L34300 48780
L34350 48800
L34440 48820
L34510 48820
L34610 48800
L34650 48780
L34700 48730
L34730 48660
L34730 48610
L34700 48540
L34680 48520
L34510 48520
L34510 48610
" />
<path d="M34730 48300
L34230 48300
L34730 48020
L34230 48020
" />
<path d="M34730 47780
L34230 47780
L34230 47660
L34250 47590
L34300 47540
L34350 47520
L34440 47500
L34510 47500
L34610 47520
L34650 47540
L34700 47590
L34730 47660
L34730 47780
" />
</g>
<g style="fill:#840000; fill-opacity:0.0; 
stroke:#840000; stroke-width:60; stroke-opacity:1; 
stroke-linecap:round; stroke-linejoin:round;">
<path d="M40500 49000
L42500 49000
" />
</g>
<g style="fill:#008484; fill-opacity:0.0; 
stroke:#008484; stroke-width:60; stroke-opacity:1; 
stroke-linecap:round; stroke-linejoin:round;">
<path d="M38960 48750
L38910 48730
L38840 48730
L38770 48750
L38720 48800
L38700 48850
L38680 48940
L38680 49010
L38700 49110
L38720 49150
L38770 49200
L38840 49230
L38890 49230
L38960 49200
L38980 49180
L38980 49010
L38890 49010
" />
<path d="M39200 49230
L39200 48730
L39480 49230
L39480 48730
" />
<path d="M39720 49230
L39720 48730
L39840 48730
L39910 48750
L39960 48800
L39980 48850
L40000 48940
L40000 49010
L39980 49110
L39960 49150
L39910 49200
L39840 49230
L39720 49230
" />
</g>
<g style="fill:#840000; fill-opacity:0.0; 
stroke:#840000; stroke-width:60; stroke-opacity:1; 
stroke-linecap:round; stroke-linejoin:round;">
<path d="M36500 54000
L36500 56000
" />
</g>
<g style="fill:#008484; fill-opacity:0.0; 
stroke:#008484; stroke-width:60; stroke-opacity:1; 
stroke-linecap:round; stroke-linejoin:round;">
<path d="M36250 53220
L36230 53270
L36230 53340
L36250 53410
L36300 53460
L36350 53480
L36440 53500
L36510 53500
L36610 53480
L36650 53460
L36700 53410
L36730 53340
L36730 53290
L36700 53220
L36680 53200
L36510 53200
L36510 53290
" />
<path d="M36730 52980
L36230 52980
L36730 52700
L36230 52700
" />
<path d="M36730 52460
L36230 52460
L36230 52340
L36250 52270
L36300 52220
L36350 52200
L36440 52180
L36510 52180
L36610 52200
L36650 52220
L36700 52270
L36730 52340
L36730 52460
" />
</g>
<g style="fill:#840000; fill-opacity:0.0; 
stroke:#840000; stroke-width:60; stroke-opacity:1; 
stroke-linecap:round; stroke-linejoin:round;">
<path d="M40500 53000
L42500 53000
" />
</g>
<g style="fill:#008484; fill-opacity:0.0; 
stroke:#008484; stroke-width:60; stroke-opacity:1; 
stroke-linecap:round; stroke-linejoin:round;">
<path d="M38960 52750
L38910 52730
L38840 52730
L38770 52750
L38720 52800
L38700 52850
L38680 52940
L38680 53010
L38700 53110
L38720 53150
L38770 53200
L38840 53230
L38890 53230
L38960 53200
L38980 53180
L38980 53010
L38890 53010
" />
<path d="M39480 53230
L39320 52990
" />
<path d="M39200 53230
L39200 52730
L39390 52730
L39440 52750
L39460 52770
L39480 52820
L39480 52890
L39460 52940
L39440 52960
L39390 52990
L39200 52990
" />
<path d="M39700 53230
L39700 52730
L39980 53230
L39980 52730
" />
</g>
<g style="fill:#840000; fill-opacity:0.0; 
stroke:#840000; stroke-width:60; stroke-opacity:1; 
stroke-linecap:round; stroke-linejoin:round;">
<path d="M37500 54000
L37500 56000
" />
</g>
<g style="fill:#008484; fill-opacity:0.0; 
stroke:#008484; stroke-width:60; stroke-opacity:1; 
stroke-linecap:round; stroke-linejoin:round;">
<path d="M37730 53200
L37490 53360
" />
<path d="M37730 53480
L37230 53480
L37230 53290
L37250 53240
L37270 53220
L37320 53200
L37390 53200
L37440 53220
L37460 53240
L37490 53290
L37490 53480
" />
<path d="M37580 53000
L37580 52770
" />
<path d="M37730 53050
L37230 52890
L37730 52720
" />
<path d="M37230 52600
L37730 52480
L37370 52380
L37730 52290
L37230 52170
" />
</g>
<g style="fill:#840000; fill-opacity:0.0; 
stroke:#840000; stroke-width:60; stroke-opacity:1; 
stroke-linecap:round; stroke-linejoin:round;">
<path d="M35500 47000
L35500 45000
" />
</g>
<g style="fill:#008484; fill-opacity:0.0; 
stroke:#008484; stroke-width:60; stroke-opacity:1; 
stroke-linecap:round; stroke-linejoin:round;">
<path d="M35730 48360
L35490 48520
" />
<path d="M35730 48640
L35230 48640
L35230 48450
L35250 48400
L35270 48380
L35320 48360
L35390 48360
L35440 48380
L35460 48400
L35490 48450
L35490 48640
" />
<path d="M35700 48160
L35730 48090
L35730 47970
L35700 47930
L35680 47900
L35630 47880
L35580 47880
L35540 47900
L35510 47930
L35490 47970
L35460 48070
L35440 48120
L35420 48140
L35370 48160
L35320 48160
L35270 48140
L35250 48120
L35230 48070
L35230 47950
L35250 47880
" />
<path d="M35230 47730
L35230 47450
" />
<path d="M35730 47590
L35230 47590
" />
</g>
<g style="fill:#840000; fill-opacity:0.0; 
stroke:#840000; stroke-width:60; stroke-opacity:1; 
stroke-linecap:round; stroke-linejoin:round;">
<path d="M35500 54000
L35500 56000
" />
</g>
<g style="fill:#008484; fill-opacity:0.0; 
stroke:#008484; stroke-width:60; stroke-opacity:1; 
stroke-linecap:round; stroke-linejoin:round;">
<path d="M35730 53200
L35490 53360
" />
<path d="M35730 53480
L35230 53480
L35230 53290
L35250 53240
L35270 53220
L35320 53200
L35390 53200
L35440 53220
L35460 53240
L35490 53290
L35490 53480
" />
<path d="M35700 53000
L35730 52930
L35730 52810
L35700 52770
L35680 52740
L35630 52720
L35580 52720
L35540 52740
L35510 52770
L35490 52810
L35460 52910
L35440 52960
L35420 52980
L35370 53000
L35320 53000
L35270 52980
L35250 52960
L35230 52910
L35230 52790
L35250 52720
" />
<path d="M35230 52570
L35230 52290
" />
<path d="M35730 52430
L35230 52430
" />
</g>
<g style="fill:#840000; fill-opacity:0.0; 
stroke:#840000; stroke-width:60; stroke-opacity:1; 
stroke-linecap:round; stroke-linejoin:round;">
<path d="M36500 47000
L36500 45000
" />
</g>
<g style="fill:#008484; fill-opacity:0.0; 
stroke:#008484; stroke-width:60; stroke-opacity:1; 
stroke-linecap:round; stroke-linejoin:round;">
<path d="M36730 48220
L36490 48380
" />
<path d="M36730 48500
L36230 48500
L36230 48310
L36250 48260
L36270 48240
L36320 48220
L36390 48220
L36440 48240
L36460 48260
L36490 48310
L36490 48500
" />
<path d="M36230 48050
L36730 47720
" />
<path d="M36230 47720
L36730 48050
" />
<path d="M36730 47520
L36230 47520
" />
</g>
<g style="fill:#840000; fill-opacity:0.0; 
stroke:#840000; stroke-width:60; stroke-opacity:1; 
stroke-linecap:round; stroke-linejoin:round;">
<path d="M40500 51000
L42500 51000
" />
</g>
<g style="fill:#008484; fill-opacity:0.0; 
stroke:#008484; stroke-width:60; stroke-opacity:1; 
stroke-linecap:round; stroke-linejoin:round;">
<path d="M39280 51230
L39120 50990
" />
<path d="M39000 51230
L39000 50730
L39190 50730
L39240 50750
L39260 50770
L39280 50820
L39280 50890
L39260 50940
L39240 50960
L39190 50990
L39000 50990
" />
<path d="M39450 50730
L39780 51230
" />
<path d="M39780 50730
L39450 51230
" />
<path d="M39980 51230
L39980 50730
" />
</g>
<g style="fill:#840000; fill-opacity:0.0; 
stroke:#840000; stroke-width:60; stroke-opacity:1; 
stroke-linecap:round; stroke-linejoin:round;">
<path d="M40500 52000
L42500 52000
" />
</g>
<g style="fill:#008484; fill-opacity:0.0; 
stroke:#008484; stroke-width:60; stroke-opacity:1; 
stroke-linecap:round; stroke-linejoin:round;">
<path d="M38810 51730
L39090 51730
" />
<path d="M38950 52230
L38950 51730
" />
<path d="M39210 51730
L39540 52230
" />
<path d="M39540 51730
L39210 52230
" />
<path d="M39830 51730
L39880 51730
L39930 51750
L39950 51770
L39980 51820
L40000 51920
L40000 52040
L39980 52130
L39950 52180
L39930 52200
L39880 52230
L39830 52230
L39790 52200
L39760 52180
L39740 52130
L39720 52040
L39720 51920
L39740 51820
L39760 51770
L39790 51750
L39830 51730
" />
</g>
<g style="fill:#840000; fill-opacity:0.0; 
stroke:#840000; stroke-width:60; stroke-opacity:1; 
stroke-linecap:round; stroke-linejoin:round;">
<path d="M37500 47000
L37500 45000
" />
</g>
<g style="fill:#008484; fill-opacity:0.0; 
stroke:#008484; stroke-width:60; stroke-opacity:1; 
stroke-linecap:round; stroke-linejoin:round;">
<path d="M37230 48710
L37230 48430
" />
<path d="M37730 48570
L37230 48570
" />
<path d="M37230 48310
L37730 47980
" />
<path d="M37230 47980
L37730 48310
" />
<path d="M37730 47780
L37230 47780
L37230 47660
L37250 47590
L37300 47540
L37350 47520
L37440 47500
L37510 47500
L37610 47520
L37650 47540
L37700 47590
L37730 47660
L37730 47780
" />
</g>
<g style="fill:#840000; fill-opacity:0.0; 
stroke:#840000; stroke-width:60; stroke-opacity:1; 
stroke-linecap:round; stroke-linejoin:round;">
<path d="M40500 50000
L42500 50000
" />
</g>
<g style="fill:#008484; fill-opacity:0.0; 
stroke:#008484; stroke-width:60; stroke-opacity:1; 
stroke-linecap:round; stroke-linejoin:round;">
<path d="M38720 49730
L38880 50230
L39050 49730
" />
<path d="M39500 50180
L39480 50200
L39410 50230
L39360 50230
L39290 50200
L39240 50150
L39220 50110
L39200 50010
L39200 49940
L39220 49850
L39240 49800
L39290 49750
L39360 49730
L39410 49730
L39480 49750
L39500 49770
" />
<path d="M40000 50180
L39980 50200
L39910 50230
L39860 50230
L39790 50200
L39740 50150
L39720 50110
L39700 50010
L39700 49940
L39720 49850
L39740 49800
L39790 49750
L39860 49730
L39910 49730
L39980 49750
L40000 49770
" />
</g>
<g style="fill:#840000; fill-opacity:0.0; 
stroke:#840000; stroke-width:60; stroke-opacity:1; 
stroke-linecap:round; stroke-linejoin:round;">
<path d="M34500 54000
L34500 56000
" />
</g>
<g style="fill:#008484; fill-opacity:0.0; 
stroke:#008484; stroke-width:60; stroke-opacity:1; 
stroke-linecap:round; stroke-linejoin:round;">
<path d="M34230 53550
L34730 53390
L34230 53220
" />
<path d="M34680 52770
L34700 52790
L34730 52860
L34730 52910
L34700 52980
L34650 53030
L34610 53050
L34510 53070
L34440 53070
L34350 53050
L34300 53030
L34250 52980
L34230 52910
L34230 52860
L34250 52790
L34270 52770
" />
<path d="M34680 52270
L34700 52290
L34730 52360
L34730 52410
L34700 52480
L34650 52530
L34610 52550
L34510 52570
L34440 52570
L34350 52550
L34300 52530
L34250 52480
L34230 52410
L34230 52360
L34250 52290
L34270 52270
" />
</g>
<g style="fill:#840000; fill-opacity:0.0; 
stroke:#840000; stroke-width:60; stroke-opacity:1; 
stroke-linecap:round; stroke-linejoin:round;">
</g>
<g style="fill:#008484; fill-opacity:0.0; 
stroke:#008484; stroke-width:60; stroke-opacity:1; 
stroke-linecap:round; stroke-linejoin:round;">
<path d="M25060 50930
L25060 50640
" />
<path d="M25230 50980
L24630 50780
L25230 50580
" />
<path d="M25230 50070
L25230 50420
" />
<path d="M25230 50240
L24630 50240
L24720 50300
L24770 50360
L24800 50420
" />
<path d="M27560 50640
L27850 50640
" />
<path d="M27510 50810
L27710 50210
L27910 50810
" />
<path d="M28450 50810
L28250 50530
" />
<path d="M28100 50810
L28100 50210
L28330 50210
L28390 50240
L28420 50270
L28450 50330
L28450 50410
L28420 50470
L28390 50500
L28330 50530
L28100 50530
" />
<path d="M28700 50810
L28700 50210
L28850 50210
L28930 50240
L28990 50300
L29020 50350
L29050 50470
L29050 50550
L29020 50670
L28990 50730
L28930 50780
L28850 50810
L28700 50810
" />
<path d="M29300 50210
L29300 50700
L29330 50750
L29360 50780
L29420 50810
L29530 50810
L29590 50780
L29620 50750
L29650 50700
L29650 50210
" />
<path d="M29930 50810
L29930 50210
" />
<path d="M30220 50810
L30220 50210
L30570 50810
L30570 50210
" />
<path d="M30970 50210
L31080 50210
L31140 50240
L31200 50300
L31220 50410
L31220 50610
L31200 50730
L31140 50780
L31080 50810
L30970 50810
L30910 50780
L30850 50730
L30820 50610
L30820 50410
L30850 50300
L30910 50240
L30970 50210
" />
<path d="M31480 50580
L31940 50580
" />
<path d="M32220 50810
L32220 50210
L32450 50210
L32510 50240
L32540 50270
L32570 50330
L32570 50410
L32540 50470
L32510 50500
L32450 50530
L32220 50530
" />
<path d="M33170 50810
L32970 50530
" />
<path d="M32820 50810
L32820 50210
L33050 50210
L33110 50240
L33140 50270
L33170 50330
L33170 50410
L33140 50470
L33110 50500
L33050 50530
L32820 50530
" />
<path d="M33540 50210
L33650 50210
L33710 50240
L33770 50300
L33790 50410
L33790 50610
L33770 50730
L33710 50780
L33650 50810
L33540 50810
L33480 50780
L33420 50730
L33390 50610
L33390 50410
L33420 50300
L33480 50240
L33540 50210
" />
<path d="M34050 50580
L34510 50580
" />
<path d="M34790 50810
L34790 50210
L34990 50640
L35190 50210
L35190 50810
" />
<path d="M35480 50810
L35480 50210
" />
<path d="M35770 50810
L35770 50210
L36120 50810
L36120 50210
" />
<path d="M36400 50810
L36400 50210
" />
</g>
<g style="fill:#008484; fill-opacity:0.0; 
stroke:#008484; stroke-width:0; stroke-opacity:1; 
stroke-linecap:round; stroke-linejoin:round;">
</g>
<g style="fill:#840000; fill-opacity:0.0; 
stroke:#840000; stroke-width:0; stroke-opacity:1; 
stroke-linecap:round; stroke-linejoin:round;">
</g>
<g style="fill:#840000; fill-opacity:0.0; 
stroke:#840000; stroke-width:60; stroke-opacity:1; 
stroke-linecap:round; stroke-linejoin:round;">
<rect x="28000" y="20500" width="7000" height="6000" rx="0" />
</g>
<g style="fill:#840000; fill-opacity:1.0; 
stroke:#840000; stroke-width:60; stroke-opacity:1; 
stroke-linecap:round; stroke-linejoin:round;">
<rect x="32000" y="24000" width="2000" height="1000" rx="0" />
</g>
<g style="fill:#840000; fill-opacity:0.0; 
stroke:#840000; stroke-width:60; stroke-opacity:1; 
stroke-linecap:round; stroke-linejoin:round;">
<rect x="29000" y="24000" width="2000" height="1000" rx="0" />
<polyline fill="none;"
points="32000,24500
31000,24500
" /> 
<polyline fill="none;"
points="31500,24500
31500,26500
" /> 
<polyline fill="none;"
points="28000,22000
31000,22000
" /> 
<polyline fill="none;"
points="35000,22000
32000,22000
31000,21500
" /> 
<polyline fill="none;"
points="34500,26500
34500,24500
34000,24500
" /> 
<polyline fill="none;"
points="29000,24500
28500,24500
28500,26500
" /> 
<path d="M35000 22000
L37000 22000
" />
<path d="M35830 21380
L36140 21380
L35970 21570
L36050 21570
L36090 21590
L36120 21610
L36140 21660
L36140 21780
L36120 21830
L36090 21850
L36050 21880
L35900 21880
L35860 21850
L35830 21830
" />
<path d="M28000 22000
L26000 22000
" />
<path d="M27120 21380
L26880 21380
L26860 21610
L26880 21590
L26930 21570
L27050 21570
L27090 21590
L27120 21610
L27140 21660
L27140 21780
L27120 21830
L27090 21850
L27050 21880
L26930 21880
L26880 21850
L26860 21830
" />
<path d="M34500 26500
L34500 28500
" />
<path d="M34190 27930
L34190 27550
" />
<path d="M34380 27050
L34380 27330
" />
<path d="M34380 27190
L33880 27190
L33950 27240
L34000 27290
L34020 27330
" />
<path d="M28500 26500
L28500 28500
" />
<path d="M28190 27930
L28190 27550
" />
<path d="M27880 27100
L27880 27190
L27900 27240
L27920 27260
L28000 27310
L28090 27330
L28280 27330
L28330 27310
L28350 27290
L28380 27240
L28380 27140
L28350 27100
L28330 27070
L28280 27050
L28160 27050
L28110 27070
L28090 27100
L28070 27140
L28070 27240
L28090 27290
L28110 27310
L28160 27330
" />
<path d="M31500 26500
L31500 28500
" />
<path d="M31190 27930
L31190 27550
" />
<path d="M31380 27740
L31000 27740
" />
<path d="M30880 27360
L30880 27030
L31380 27240
" />
</g>
<g style="fill:#008484; fill-opacity:0.0; 
stroke:#008484; stroke-width:60; stroke-opacity:1; 
stroke-linecap:round; stroke-linejoin:round;">
<path d="M31100 18810
L30900 18530
" />
<path d="M30750 18810
L30750 18210
L30980 18210
L31040 18240
L31070 18270
L31100 18330
L31100 18410
L31070 18470
L31040 18500
L30980 18530
L30750 18530
" />
<path d="M31550 18500
L31640 18530
L31670 18550
L31700 18610
L31700 18700
L31670 18750
L31640 18780
L31580 18810
L31350 18810
L31350 18210
L31550 18210
L31610 18240
L31640 18270
L31670 18330
L31670 18380
L31640 18440
L31610 18470
L31550 18500
L31350 18500
" />
<path d="M32270 18810
L31920 18810
" />
<path d="M32100 18810
L32100 18210
L32040 18300
L31980 18350
L31920 18380
" />
<path d="M28370 19810
L28170 19530
" />
<path d="M28020 19810
L28020 19210
L28250 19210
L28310 19240
L28340 19270
L28370 19330
L28370 19410
L28340 19470
L28310 19500
L28250 19530
L28020 19530
" />
<path d="M28620 19500
L28820 19500
" />
<path d="M28910 19810
L28620 19810
L28620 19210
L28910 19210
" />
<path d="M29450 19810
L29160 19810
L29160 19210
" />
<path d="M29620 19640
L29910 19640
" />
<path d="M29570 19810
L29770 19210
L29970 19810
" />
<path d="M30160 19810
L30160 19210
" />
<path d="M30450 19580
L30910 19580
" />
<path d="M31390 19500
L31480 19530
L31510 19550
L31540 19610
L31540 19700
L31510 19750
L31480 19780
L31420 19810
L31190 19810
L31190 19210
L31390 19210
L31450 19240
L31480 19270
L31510 19330
L31510 19380
L31480 19440
L31450 19470
L31390 19500
L31190 19500
" />
<path d="M31790 19810
L31790 19210
" />
<path d="M32050 19780
L32140 19810
L32280 19810
L32340 19780
L32370 19750
L32400 19700
L32400 19640
L32370 19580
L32340 19550
L32280 19530
L32170 19500
L32110 19470
L32080 19440
L32050 19380
L32050 19330
L32080 19270
L32110 19240
L32170 19210
L32310 19210
L32400 19240
" />
<path d="M32570 19210
L32910 19210
" />
<path d="M32740 19810
L32740 19210
" />
<path d="M33080 19640
L33370 19640
" />
<path d="M33030 19810
L33230 19210
L33430 19810
" />
<path d="M33820 19500
L33910 19530
L33940 19550
L33970 19610
L33970 19700
L33940 19750
L33910 19780
L33850 19810
L33620 19810
L33620 19210
L33820 19210
L33880 19240
L33910 19270
L33940 19330
L33940 19380
L33910 19440
L33880 19470
L33820 19500
L33620 19500
" />
<path d="M34510 19810
L34220 19810
L34220 19210
" />
<path d="M34710 19500
L34910 19500
" />
<path d="M35000 19810
L34710 19810
L34710 19210
L35000 19210
" />
</g>
<g style="fill:#008484; fill-opacity:0.0; 
stroke:#008484; stroke-width:0; stroke-opacity:1; 
stroke-linecap:round; stroke-linejoin:round;">
</g>
<g style="fill:#840000; fill-opacity:0.0; 
stroke:#840000; stroke-width:0; stroke-opacity:1; 
stroke-linecap:round; stroke-linejoin:round;">
</g>
<g style="fill:#840000; fill-opacity:0.0; 
stroke:#840000; stroke-width:80; stroke-opacity:1; 
stroke-linecap:round; stroke-linejoin:round;">
<polyline fill="none;"
points="32500,30500
32500,29500
" /> 
</g>
<g style="fill:#840000; fill-opacity:0.0; 
stroke:#840000; stroke-width:60; stroke-opacity:1; 
stroke-linecap:round; stroke-linejoin:round;">
<polyline fill="none;"
points="33500,30000
32500,30000
" /> 
</g>
<g style="fill:#840000; fill-opacity:0.0; 
stroke:#840000; stroke-width:80; stroke-opacity:1; 
stroke-linecap:round; stroke-linejoin:round;">
<polyline fill="none;"
points="33500,30500
33500,29500
32500,30000
33500,30500
" /> 
</g>
<g style="fill:#840000; fill-opacity:0.0; 
stroke:#840000; stroke-width:60; stroke-opacity:1; 
stroke-linecap:round; stroke-linejoin:round;">
<path d="M32500 30000
L31500 30000
" />
<path d="M33500 30000
L34500 30000
" />
</g>
<g style="fill:#008484; fill-opacity:0.0; 
stroke:#008484; stroke-width:60; stroke-opacity:1; 
stroke-linecap:round; stroke-linejoin:round;">
<path d="M32630 29190
L32630 28690
L32750 28690
L32820 28710
L32870 28760
L32890 28810
L32910 28900
L32910 28970
L32890 29070
L32870 29110
L32820 29160
L32750 29190
L32630 29190
" />
<path d="M33390 29190
L33110 29190
" />
<path d="M33250 29190
L33250 28690
L33200 28760
L33150 28810
L33110 28830
" />
</g>
<g style="fill:#008484; fill-opacity:0.0; 
stroke:#008484; stroke-width:0; stroke-opacity:1; 
stroke-linecap:round; stroke-linejoin:round;">
</g>
<g style="fill:#840000; fill-opacity:0.0; 
stroke:#840000; stroke-width:0; stroke-opacity:1; 
stroke-linecap:round; stroke-linejoin:round;">
</g>
<g style="fill:#840000; fill-opacity:0.0; 
stroke:#840000; stroke-width:100; stroke-opacity:1; 
stroke-linecap:round; stroke-linejoin:round;">
<circle cx="28000" cy="35500" r="1110" /> 
</g>
<g style="fill:#840000; fill-opacity:0.0; 
stroke:#840000; stroke-width:60; stroke-opacity:1; 
stroke-linecap:round; stroke-linejoin:round;">
<polyline fill="none;"
points="27500,35500
27750,35500
" /> 
<polyline fill="none;"
points="27750,35250
28500,34500
" /> 
<polyline fill="none;"
points="27750,35750
28500,36500
28500,36500
" /> 
</g>
<g style="fill:#840000; fill-opacity:0.0; 
stroke:#840000; stroke-width:200; stroke-opacity:1; 
stroke-linecap:round; stroke-linejoin:round;">
<polyline fill="none;"
points="27750,34750
27750,36250
27750,36250
" /> 
</g>
<g style="fill:#840000; fill-opacity:1.0; 
stroke:#840000; stroke-width:60; stroke-opacity:1; 
stroke-linecap:round; stroke-linejoin:round;">
<polyline style="fill-rule:evenodd;"
points="28000,36200
28200,36000
28400,36400
28000,36200
28000,36200
" /> 
</g>
<g style="fill:#840000; fill-opacity:0.0; 
stroke:#840000; stroke-width:60; stroke-opacity:1; 
stroke-linecap:round; stroke-linejoin:round;">
<path d="M28500 34500
L28500 33500
" />
</g>
<g style="fill:#008484; fill-opacity:0.0; 
stroke:#008484; stroke-width:60; stroke-opacity:1; 
stroke-linecap:round; stroke-linejoin:round;">
<path d="M28330 33850
L28350 33870
L28380 33940
L28380 33990
L28350 34060
L28300 34110
L28260 34130
L28160 34150
L28090 34150
L28000 34130
L27950 34110
L27900 34060
L27880 33990
L27880 33940
L27900 33870
L27920 33850
" />
</g>
<g style="fill:#840000; fill-opacity:0.0; 
stroke:#840000; stroke-width:60; stroke-opacity:1; 
stroke-linecap:round; stroke-linejoin:round;">
<path d="M29080 33860
L29080 34140
" />
<path d="M29080 34000
L28580 34000
L28650 34050
L28700 34100
L28720 34140
" />
<path d="M27500 35500
L25500 35500
" />
</g>
<g style="fill:#008484; fill-opacity:0.0; 
stroke:#008484; stroke-width:60; stroke-opacity:1; 
stroke-linecap:round; stroke-linejoin:round;">
<path d="M26540 35110
L26610 35140
L26630 35160
L26650 35210
L26650 35280
L26630 35330
L26610 35350
L26560 35380
L26370 35380
L26370 34880
L26540 34880
L26580 34900
L26610 34920
L26630 34970
L26630 35020
L26610 35070
L26580 35090
L26540 35110
L26370 35110
" />
</g>
<g style="fill:#840000; fill-opacity:0.0; 
stroke:#840000; stroke-width:60; stroke-opacity:1; 
stroke-linecap:round; stroke-linejoin:round;">
<path d="M26360 35620
L26380 35600
L26430 35580
L26550 35580
L26590 35600
L26620 35620
L26640 35670
L26640 35720
L26620 35790
L26330 36080
L26640 36080
" />
<path d="M28500 36500
L28500 37500
" />
</g>
<g style="fill:#008484; fill-opacity:0.0; 
stroke:#008484; stroke-width:60; stroke-opacity:1; 
stroke-linecap:round; stroke-linejoin:round;">
<path d="M28110 37100
L28110 36930
" />
<path d="M28380 36860
L28380 37100
L27880 37100
L27880 36860
" />
</g>
<g style="fill:#840000; fill-opacity:0.0; 
stroke:#840000; stroke-width:60; stroke-opacity:1; 
stroke-linecap:round; stroke-linejoin:round;">
<path d="M28580 37170
L28580 36860
L28770 37030
L28770 36950
L28790 36910
L28810 36880
L28860 36860
L28980 36860
L29030 36880
L29050 36910
L29080 36950
L29080 37100
L29050 37140
L29030 37170
" />
</g>
<g style="fill:#008484; fill-opacity:0.0; 
stroke:#008484; stroke-width:60; stroke-opacity:1; 
stroke-linecap:round; stroke-linejoin:round;">
<path d="M25050 32260
L25330 32260
" />
<path d="M25190 32760
L25190 32260
" />
<path d="M25480 32300
L25500 32280
L25550 32260
L25670 32260
L25710 32280
L25740 32300
L25760 32350
L25760 32400
L25740 32470
L25450 32760
L25760 32760
" />
<path d="M25290 33490
L25360 33520
L25380 33540
L25400 33590
L25400 33660
L25380 33710
L25360 33730
L25310 33760
L25120 33760
L25120 33260
L25290 33260
L25330 33280
L25360 33300
L25380 33350
L25380 33400
L25360 33450
L25330 33470
L25290 33490
L25120 33490
" />
<path d="M25900 33710
L25880 33730
L25810 33760
L25760 33760
L25690 33730
L25640 33680
L25620 33640
L25600 33540
L25600 33470
L25620 33380
L25640 33330
L25690 33280
L25760 33260
L25810 33260
L25880 33280
L25900 33300
" />
<path d="M26070 33260
L26380 33260
L26210 33450
L26290 33450
L26330 33470
L26360 33490
L26380 33540
L26380 33660
L26360 33710
L26330 33730
L26290 33760
L26140 33760
L26100 33730
L26070 33710
" />
<path d="M26550 33260
L26860 33260
L26690 33450
L26770 33450
L26810 33470
L26840 33490
L26860 33540
L26860 33660
L26840 33710
L26810 33730
L26770 33760
L26620 33760
L26580 33730
L26550 33710
" />
<path d="M27030 33260
L27360 33260
L27150 33760
" />
</g>
<g style="fill:#008484; fill-opacity:0.0; 
stroke:#008484; stroke-width:0; stroke-opacity:1; 
stroke-linecap:round; stroke-linejoin:round;">
</g>
<g style="fill:#840000; fill-opacity:0.0; 
stroke:#840000; stroke-width:0; stroke-opacity:1; 
stroke-linecap:round; stroke-linejoin:round;">
</g>
<g style="fill:#840000; fill-opacity:0.0; 
stroke:#840000; stroke-width:100; stroke-opacity:1; 
stroke-linecap:round; stroke-linejoin:round;">
<circle cx="35000" cy="35500" r="1110" /> 
</g>
<g style="fill:#840000; fill-opacity:0.0; 
stroke:#840000; stroke-width:60; stroke-opacity:1; 
stroke-linecap:round; stroke-linejoin:round;">
<polyline fill="none;"
points="35500,35500
35250,35500
" /> 
<polyline fill="none;"
points="35250,35250
34500,34500
" /> 
<polyline fill="none;"
points="35250,35750
34500,36500
34500,36500
" /> 
</g>
<g style="fill:#840000; fill-opacity:0.0; 
stroke:#840000; stroke-width:200; stroke-opacity:1; 
stroke-linecap:round; stroke-linejoin:round;">
<polyline fill="none;"
points="35250,34750
35250,36250
35250,36250
" /> 
</g>
<g style="fill:#840000; fill-opacity:1.0; 
stroke:#840000; stroke-width:60; stroke-opacity:1; 
stroke-linecap:round; stroke-linejoin:round;">
<polyline style="fill-rule:evenodd;"
points="35000,36200
34800,36000
34600,36400
35000,36200
35000,36200
" /> 
</g>
<g style="fill:#840000; fill-opacity:0.0; 
stroke:#840000; stroke-width:60; stroke-opacity:1; 
stroke-linecap:round; stroke-linejoin:round;">
<path d="M34500 34500
L34500 33500
" />
</g>
<g style="fill:#008484; fill-opacity:0.0; 
stroke:#008484; stroke-width:60; stroke-opacity:1; 
stroke-linecap:round; stroke-linejoin:round;">
<path d="M34330 33850
L34350 33870
L34380 33940
L34380 33990
L34350 34060
L34300 34110
L34260 34130
L34160 34150
L34090 34150
L34000 34130
L33950 34110
L33900 34060
L33880 33990
L33880 33940
L33900 33870
L33920 33850
" />
</g>
<g style="fill:#840000; fill-opacity:0.0; 
stroke:#840000; stroke-width:60; stroke-opacity:1; 
stroke-linecap:round; stroke-linejoin:round;">
<path d="M35080 33860
L35080 34140
" />
<path d="M35080 34000
L34580 34000
L34650 34050
L34700 34100
L34720 34140
" />
<path d="M35500 35500
L37500 35500
" />
</g>
<g style="fill:#008484; fill-opacity:0.0; 
stroke:#008484; stroke-width:60; stroke-opacity:1; 
stroke-linecap:round; stroke-linejoin:round;">
<path d="M36540 35110
L36610 35140
L36630 35160
L36650 35210
L36650 35280
L36630 35330
L36610 35350
L36560 35380
L36370 35380
L36370 34880
L36540 34880
L36580 34900
L36610 34920
L36630 34970
L36630 35020
L36610 35070
L36580 35090
L36540 35110
L36370 35110
" />
</g>
<g style="fill:#840000; fill-opacity:0.0; 
stroke:#840000; stroke-width:60; stroke-opacity:1; 
stroke-linecap:round; stroke-linejoin:round;">
<path d="M36360 35620
L36380 35600
L36430 35580
L36550 35580
L36590 35600
L36620 35620
L36640 35670
L36640 35720
L36620 35790
L36330 36080
L36640 36080
" />
<path d="M34500 36500
L34500 37500
" />
</g>
<g style="fill:#008484; fill-opacity:0.0; 
stroke:#008484; stroke-width:60; stroke-opacity:1; 
stroke-linecap:round; stroke-linejoin:round;">
<path d="M34110 37100
L34110 36930
" />
<path d="M34380 36860
L34380 37100
L33880 37100
L33880 36860
" />
</g>
<g style="fill:#840000; fill-opacity:0.0; 
stroke:#840000; stroke-width:60; stroke-opacity:1; 
stroke-linecap:round; stroke-linejoin:round;">
<path d="M34580 37170
L34580 36860
L34770 37030
L34770 36950
L34790 36910
L34810 36880
L34860 36860
L34980 36860
L35030 36880
L35050 36910
L35080 36950
L35080 37100
L35050 37140
L35030 37170
" />
</g>
<g style="fill:#008484; fill-opacity:0.0; 
stroke:#008484; stroke-width:60; stroke-opacity:1; 
stroke-linecap:round; stroke-linejoin:round;">
<path d="M37190 32260
L37470 32260
" />
<path d="M37330 32760
L37330 32260
" />
<path d="M37900 32760
L37620 32760
" />
<path d="M37760 32760
L37760 32260
L37710 32330
L37660 32380
L37620 32400
" />
<path d="M35850 33490
L35920 33520
L35940 33540
L35960 33590
L35960 33660
L35940 33710
L35920 33730
L35870 33760
L35680 33760
L35680 33260
L35850 33260
L35890 33280
L35920 33300
L35940 33350
L35940 33400
L35920 33450
L35890 33470
L35850 33490
L35680 33490
" />
<path d="M36460 33710
L36440 33730
L36370 33760
L36320 33760
L36250 33730
L36200 33680
L36180 33640
L36160 33540
L36160 33470
L36180 33380
L36200 33330
L36250 33280
L36320 33260
L36370 33260
L36440 33280
L36460 33300
" />
<path d="M36630 33260
L36940 33260
L36770 33450
L36850 33450
L36890 33470
L36920 33490
L36940 33540
L36940 33660
L36920 33710
L36890 33730
L36850 33760
L36700 33760
L36660 33730
L36630 33710
" />
<path d="M37110 33260
L37420 33260
L37250 33450
L37330 33450
L37370 33470
L37400 33490
L37420 33540
L37420 33660
L37400 33710
L37370 33730
L37330 33760
L37180 33760
L37140 33730
L37110 33710
" />
<path d="M37590 33260
L37920 33260
L37710 33760
" />
</g>
<g style="fill:#008484; fill-opacity:0.0; 
stroke:#008484; stroke-width:0; stroke-opacity:1; 
stroke-linecap:round; stroke-linejoin:round;">
</g>
<g style="fill:#840000; fill-opacity:0.0; 
stroke:#840000; stroke-width:0; stroke-opacity:1; 
stroke-linecap:round; stroke-linejoin:round;">
</g>
<g style="fill:#840000; fill-opacity:0.0; 
stroke:#840000; stroke-width:100; stroke-opacity:1; 
stroke-linecap:round; stroke-linejoin:round;">
<rect x="24600" y="37000" width="800" height="2000" rx="0" />
</g>
<g style="fill:#840000; fill-opacity:0.0; 
stroke:#840000; stroke-width:60; stroke-opacity:1; 
stroke-linecap:round; stroke-linejoin:round;">
<path d="M25000 37000
L25000 36500
" />
<path d="M25000 39000
L25000 39500
" />
</g>
<g style="fill:#008484; fill-opacity:0.0; 
stroke:#008484; stroke-width:60; stroke-opacity:1; 
stroke-linecap:round; stroke-linejoin:round;">
<path d="M24260 38090
L24020 38250
" />
<path d="M24260 38370
L23760 38370
L23760 38180
L23780 38130
L23800 38110
L23850 38090
L23920 38090
L23970 38110
L23990 38130
L24020 38180
L24020 38370
" />
<path d="M23920 37660
L24260 37660
" />
<path d="M23730 37780
L24090 37890
L24090 37590
" />
<path d="M26260 38570
L26260 38850
" />
<path d="M26260 38710
L25760 38710
L25830 38760
L25880 38810
L25900 38850
" />
<path d="M25760 38260
L25760 38210
L25780 38160
L25800 38140
L25850 38110
L25950 38090
L26070 38090
L26160 38110
L26210 38140
L26230 38160
L26260 38210
L26260 38260
L26230 38300
L26210 38330
L26160 38350
L26070 38370
L25950 38370
L25850 38350
L25800 38330
L25780 38300
L25760 38260
" />
<path d="M26260 37870
L25760 37870
" />
<path d="M26070 37820
L26260 37680
" />
<path d="M25920 37680
L26110 37870
" />
<path d="M26260 37490
L26260 37380
L26160 37380
L26140 37420
L26090 37470
L26020 37490
L25900 37490
L25830 37470
L25780 37420
L25760 37350
L25760 37260
L25780 37190
L25830 37140
L25900 37110
L26020 37110
L26090 37140
L26140 37190
L26160 37230
L26260 37230
L26260 37110
" />
</g>
<g style="fill:#008484; fill-opacity:0.0; 
stroke:#008484; stroke-width:0; stroke-opacity:1; 
stroke-linecap:round; stroke-linejoin:round;">
</g>
<g style="fill:#840000; fill-opacity:0.0; 
stroke:#840000; stroke-width:0; stroke-opacity:1; 
stroke-linecap:round; stroke-linejoin:round;">
</g>
<g style="fill:#840000; fill-opacity:0.0; 
stroke:#840000; stroke-width:100; stroke-opacity:1; 
stroke-linecap:round; stroke-linejoin:round;">
<rect x="39000" y="35100" width="2000" height="800" rx="0" />
</g>
<g style="fill:#840000; fill-opacity:0.0; 
stroke:#840000; stroke-width:60; stroke-opacity:1; 
stroke-linecap:round; stroke-linejoin:round;">
<path d="M41000 35500
L41500 35500
" />
<path d="M39000 35500
L38500 35500
" />
</g>
<g style="fill:#008484; fill-opacity:0.0; 
stroke:#008484; stroke-width:60; stroke-opacity:1; 
stroke-linecap:round; stroke-linejoin:round;">
<path d="M39910 34760
L39750 34520
" />
<path d="M39630 34760
L39630 34260
L39820 34260
L39870 34280
L39890 34300
L39910 34350
L39910 34420
L39890 34470
L39870 34490
L39820 34520
L39630 34520
" />
<path d="M40390 34760
L40110 34760
" />
<path d="M40250 34760
L40250 34260
L40200 34330
L40150 34380
L40110 34400
" />
<path d="M39020 36300
L39040 36280
L39090 36260
L39210 36260
L39250 36280
L39280 36300
L39300 36350
L39300 36400
L39280 36470
L38990 36760
L39300 36760
" />
<path d="M39520 36710
L39540 36730
L39520 36760
L39500 36730
L39520 36710
L39520 36760
" />
<path d="M39740 36300
L39760 36280
L39810 36260
L39930 36260
L39970 36280
L40000 36300
L40020 36350
L40020 36400
L40000 36470
L39710 36760
L40020 36760
" />
<path d="M40240 36760
L40240 36260
" />
<path d="M40290 36570
L40430 36760
" />
<path d="M40430 36420
L40240 36610
" />
<path d="M40620 36760
L40730 36760
L40730 36660
L40690 36640
L40640 36590
L40620 36520
L40620 36400
L40640 36330
L40690 36280
L40760 36260
L40850 36260
L40920 36280
L40970 36330
L41000 36400
L41000 36520
L40970 36590
L40920 36640
L40880 36660
L40880 36760
L41000 36760
" />
</g>
<g style="fill:#008484; fill-opacity:0.0; 
stroke:#008484; stroke-width:0; stroke-opacity:1; 
stroke-linecap:round; stroke-linejoin:round;">
</g>
<g style="fill:#840000; fill-opacity:0.0; 
stroke:#840000; stroke-width:0; stroke-opacity:1; 
stroke-linecap:round; stroke-linejoin:round;">
</g>
<g style="fill:#840000; fill-opacity:0.0; 
stroke:#840000; stroke-width:100; stroke-opacity:1; 
stroke-linecap:round; stroke-linejoin:round;">
<rect x="37600" y="37000" width="800" height="2000" rx="0" />
</g>
<g style="fill:#840000; fill-opacity:0.0; 
stroke:#840000; stroke-width:60; stroke-opacity:1; 
stroke-linecap:round; stroke-linejoin:round;">
<path d="M38000 39000
L38000 39500
" />
<path d="M38000 37000
L38000 36500
" />
</g>
<g style="fill:#008484; fill-opacity:0.0; 
stroke:#008484; stroke-width:60; stroke-opacity:1; 
stroke-linecap:round; stroke-linejoin:round;">
<path d="M39190 38090
L38950 38250
" />
<path d="M39190 38370
L38690 38370
L38690 38180
L38710 38130
L38730 38110
L38780 38090
L38850 38090
L38900 38110
L38920 38130
L38950 38180
L38950 38370
" />
<path d="M38730 37890
L38710 37870
L38690 37820
L38690 37700
L38710 37660
L38730 37630
L38780 37610
L38830 37610
L38900 37630
L39190 37920
L39190 37610
" />
<path d="M37190 38580
L37190 38860
" />
<path d="M37190 38720
L36690 38720
L36760 38770
L36810 38820
L36830 38860
" />
<path d="M36690 38270
L36690 38220
L36710 38170
L36730 38150
L36780 38120
L36880 38100
L37000 38100
L37090 38120
L37140 38150
L37160 38170
L37190 38220
L37190 38270
L37160 38310
L37140 38340
L37090 38360
L37000 38380
L36880 38380
L36780 38360
L36730 38340
L36710 38310
L36690 38270
" />
<path d="M37190 37880
L36690 37880
" />
<path d="M37000 37830
L37190 37690
" />
<path d="M36850 37690
L37040 37880
" />
<path d="M37190 37500
L37190 37390
L37090 37390
L37070 37430
L37020 37480
L36950 37500
L36830 37500
L36760 37480
L36710 37430
L36690 37360
L36690 37270
L36710 37200
L36760 37150
L36830 37120
L36950 37120
L37020 37150
L37070 37200
L37090 37240
L37190 37240
L37190 37120
" />
</g>
<g style="fill:#008484; fill-opacity:0.0; 
stroke:#008484; stroke-width:0; stroke-opacity:1; 
stroke-linecap:round; stroke-linejoin:round;">
</g>
<g style="fill:#840000; fill-opacity:0.0; 
stroke:#840000; stroke-width:0; stroke-opacity:1; 
stroke-linecap:round; stroke-linejoin:round;">
</g>
<g style="fill:#840000; fill-opacity:0.0; 
stroke:#840000; stroke-width:60; stroke-opacity:1; 
stroke-linecap:round; stroke-linejoin:round;">
<polyline fill="none;"
points="25000,40000
25000,40500
25500,40500
25000,41000
24500,40500
25000,40500
" /> 
</g>
<g style="fill:#008484; fill-opacity:0.0; 
stroke:#008484; stroke-width:60; stroke-opacity:1; 
stroke-linecap:round; stroke-linejoin:round;">
<path d="M24620 41280
L24570 41260
L24500 41260
L24430 41280
L24380 41330
L24360 41380
L24340 41470
L24340 41540
L24360 41640
L24380 41680
L24430 41730
L24500 41760
L24550 41760
L24620 41730
L24640 41710
L24640 41540
L24550 41540
" />
<path d="M24860 41760
L24860 41260
L25140 41760
L25140 41260
" />
<path d="M25380 41760
L25380 41260
L25500 41260
L25570 41280
L25620 41330
L25640 41380
L25660 41470
L25660 41540
L25640 41640
L25620 41680
L25570 41730
L25500 41760
L25380 41760
" />
</g>
<g style="fill:#008484; fill-opacity:0.0; 
stroke:#008484; stroke-width:0; stroke-opacity:1; 
stroke-linecap:round; stroke-linejoin:round;">
</g>
<g style="fill:#840000; fill-opacity:0.0; 
stroke:#840000; stroke-width:0; stroke-opacity:1; 
stroke-linecap:round; stroke-linejoin:round;">
</g>
<g style="fill:#840000; fill-opacity:0.0; 
stroke:#840000; stroke-width:60; stroke-opacity:1; 
stroke-linecap:round; stroke-linejoin:round;">
<polyline fill="none;"
points="38000,40000
38000,40500
38500,40500
38000,41000
37500,40500
38000,40500
" /> 
</g>
<g style="fill:#008484; fill-opacity:0.0; 
stroke:#008484; stroke-width:60; stroke-opacity:1; 
stroke-linecap:round; stroke-linejoin:round;">
<path d="M37620 41280
L37570 41260
L37500 41260
L37430 41280
L37380 41330
L37360 41380
L37340 41470
L37340 41540
L37360 41640
L37380 41680
L37430 41730
L37500 41760
L37550 41760
L37620 41730
L37640 41710
L37640 41540
L37550 41540
" />
<path d="M37860 41760
L37860 41260
L38140 41760
L38140 41260
" />
<path d="M38380 41760
L38380 41260
L38500 41260
L38570 41280
L38620 41330
L38640 41380
L38660 41470
L38660 41540
L38640 41640
L38620 41680
L38570 41730
L38500 41760
L38380 41760
" />
</g>
<g style="fill:#008484; fill-opacity:0.0; 
stroke:#008484; stroke-width:0; stroke-opacity:1; 
stroke-linecap:round; stroke-linejoin:round;">
</g>
<g style="fill:#840000; fill-opacity:0.0; 
stroke:#840000; stroke-width:0; stroke-opacity:1; 
stroke-linecap:round; stroke-linejoin:round;">
</g>
<g style="fill:#840000; fill-opacity:0.0; 
stroke:#840000; stroke-width:60; stroke-opacity:1; 
stroke-linecap:round; stroke-linejoin:round;">
<polyline fill="none;"
points="36500,57500
36500,58000
37000,58000
36500,58500
36000,58000
36500,58000
" /> 
</g>
<g style="fill:#008484; fill-opacity:0.0; 
stroke:#008484; stroke-width:60; stroke-opacity:1; 
stroke-linecap:round; stroke-linejoin:round;">
<path d="M36120 58780
L36070 58760
L36000 58760
L35930 58780
L35880 58830
L35860 58880
L35840 58970
L35840 59040
L35860 59140
L35880 59180
L35930 59230
L36000 59260
L36050 59260
L36120 59230
L36140 59210
L36140 59040
L36050 59040
" />
<path d="M36360 59260
L36360 58760
L36640 59260
L36640 58760
" />
<path d="M36880 59260
L36880 58760
L37000 58760
L37070 58780
L37120 58830
L37140 58880
L37160 58970
L37160 59040
L37140 59140
L37120 59180
L37070 59230
L37000 59260
L36880 59260
" />
</g>
<g style="fill:#008484; fill-opacity:0.0; 
stroke:#008484; stroke-width:0; stroke-opacity:1; 
stroke-linecap:round; stroke-linejoin:round;">
</g>
<g style="fill:#840000; fill-opacity:0.0; 
stroke:#840000; stroke-width:0; stroke-opacity:1; 
stroke-linecap:round; stroke-linejoin:round;">
</g>
<g style="fill:#840000; fill-opacity:0.0; 
stroke:#840000; stroke-width:60; stroke-opacity:1; 
stroke-linecap:round; stroke-linejoin:round;">
<polyline fill="none;"
points="33800,58000
33500,58500
" /> 
<polyline fill="none;"
points="33500,57500
33500,58500
" /> 
<polyline fill="none;"
points="33500,58500
33200,58000
" /> 
</g>
<g style="fill:#008484; fill-opacity:0.0; 
stroke:#008484; stroke-width:60; stroke-opacity:1; 
stroke-linecap:round; stroke-linejoin:round;">
<path d="M32490 58900
L32870 58900
" />
<path d="M32680 59090
L32680 58710
" />
<path d="M33060 58590
L33370 58590
L33200 58780
L33280 58780
L33320 58800
L33350 58820
L33370 58870
L33370 58990
L33350 59040
L33320 59060
L33280 59090
L33130 59090
L33090 59060
L33060 59040
" />
<path d="M33590 59040
L33610 59060
L33590 59090
L33570 59060
L33590 59040
L33590 59090
" />
<path d="M33780 58590
L34090 58590
L33920 58780
L34000 58780
L34040 58800
L34070 58820
L34090 58870
L34090 58990
L34070 59040
L34040 59060
L34000 59090
L33850 59090
L33810 59060
L33780 59040
" />
<path d="M34240 58590
L34400 59090
L34570 58590
" />
</g>
<g style="fill:#008484; fill-opacity:0.0; 
stroke:#008484; stroke-width:0; stroke-opacity:1; 
stroke-linecap:round; stroke-linejoin:round;">
</g>
<g style="fill:#840000; fill-opacity:0.0; 
stroke:#840000; stroke-width:0; stroke-opacity:1; 
stroke-linecap:round; stroke-linejoin:round;">
</g>
<g style="fill:#840000; fill-opacity:0.0; 
stroke:#840000; stroke-width:60; stroke-opacity:1; 
stroke-linecap:round; stroke-linejoin:round;">
<path d="M17500 48500
L17500 48500
" />
<polyline fill="none;"
points="17500,48500
17500,48000
16750,47500
17500,47000
18250,47500
17500,48000
" /> 
</g>
<g style="fill:#008484; fill-opacity:0.0; 
stroke:#008484; stroke-width:60; stroke-opacity:1; 
stroke-linecap:round; stroke-linejoin:round;">
<path d="M15770 46960
L15770 46460
L15960 46460
L16010 46480
L16030 46500
L16050 46550
L16050 46620
L16030 46670
L16010 46690
L15960 46720
L15770 46720
" />
<path d="M16220 46460
L16340 46960
L16440 46600
L16530 46960
L16650 46460
" />
<path d="M17120 46960
L16960 46720
" />
<path d="M16840 46960
L16840 46460
L17030 46460
L17080 46480
L17100 46500
L17120 46550
L17120 46620
L17100 46670
L17080 46690
L17030 46720
L16840 46720
" />
<path d="M17220 47000
L17600 47000
" />
<path d="M17890 46690
L17720 46690
" />
<path d="M17720 46960
L17720 46460
L17960 46460
" />
<path d="M18390 46960
L18150 46960
L18150 46460
" />
<path d="M18530 46810
L18760 46810
" />
<path d="M18480 46960
L18640 46460
L18810 46960
" />
<path d="M19240 46480
L19190 46460
L19120 46460
L19050 46480
L19000 46530
L18980 46580
L18960 46670
L18960 46740
L18980 46840
L19000 46880
L19050 46930
L19120 46960
L19170 46960
L19240 46930
L19260 46910
L19260 46740
L19170 46740
" />
</g>
<g style="fill:#008484; fill-opacity:0.0; 
stroke:#008484; stroke-width:0; stroke-opacity:1; 
stroke-linecap:round; stroke-linejoin:round;">
</g>
<g style="fill:#840000; fill-opacity:0.0; 
stroke:#840000; stroke-width:0; stroke-opacity:1; 
stroke-linecap:round; stroke-linejoin:round;">
</g>
<g style="fill:#840000; fill-opacity:0.0; 
stroke:#840000; stroke-width:60; stroke-opacity:1; 
stroke-linecap:round; stroke-linejoin:round;">
<path d="M21500 48500
L21500 48500
" />
<polyline fill="none;"
points="21500,48500
21500,48000
20750,47500
21500,47000
22250,47500
21500,48000
" /> 
</g>
<g style="fill:#008484; fill-opacity:0.0; 
stroke:#008484; stroke-width:60; stroke-opacity:1; 
stroke-linecap:round; stroke-linejoin:round;">
<path d="M19770 46960
L19770 46460
L19960 46460
L20010 46480
L20030 46500
L20050 46550
L20050 46620
L20030 46670
L20010 46690
L19960 46720
L19770 46720
" />
<path d="M20220 46460
L20340 46960
L20440 46600
L20530 46960
L20650 46460
" />
<path d="M21120 46960
L20960 46720
" />
<path d="M20840 46960
L20840 46460
L21030 46460
L21080 46480
L21100 46500
L21120 46550
L21120 46620
L21100 46670
L21080 46690
L21030 46720
L20840 46720
" />
<path d="M21220 47000
L21600 47000
" />
<path d="M21890 46690
L21720 46690
" />
<path d="M21720 46960
L21720 46460
L21960 46460
" />
<path d="M22390 46960
L22150 46960
L22150 46460
" />
<path d="M22530 46810
L22760 46810
" />
<path d="M22480 46960
L22640 46460
L22810 46960
" />
<path d="M23240 46480
L23190 46460
L23120 46460
L23050 46480
L23000 46530
L22980 46580
L22960 46670
L22960 46740
L22980 46840
L23000 46880
L23050 46930
L23120 46960
L23170 46960
L23240 46930
L23260 46910
L23260 46740
L23170 46740
" />
</g>
<g style="fill:#008484; fill-opacity:0.0; 
stroke:#008484; stroke-width:0; stroke-opacity:1; 
stroke-linecap:round; stroke-linejoin:round;">
</g>
<g style="fill:#840000; fill-opacity:0.0; 
stroke:#840000; stroke-width:0; stroke-opacity:1; 
stroke-linecap:round; stroke-linejoin:round;">
</g>
<g style="fill:#840000; fill-opacity:0.0; 
stroke:#840000; stroke-width:60; stroke-opacity:1; 
stroke-linecap:round; stroke-linejoin:round;">
<polyline fill="none;"
points="17800,50500
17500,51000
" /> 
<polyline fill="none;"
points="17500,50000
17500,51000
" /> 
<polyline fill="none;"
points="17500,51000
17200,50500
" /> 
</g>
<g style="fill:#008484; fill-opacity:0.0; 
stroke:#008484; stroke-width:60; stroke-opacity:1; 
stroke-linecap:round; stroke-linejoin:round;">
<path d="M16490 51400
L16870 51400
" />
<path d="M16680 51590
L16680 51210
" />
<path d="M17060 51090
L17370 51090
L17200 51280
L17280 51280
L17320 51300
L17350 51320
L17370 51370
L17370 51490
L17350 51540
L17320 51560
L17280 51590
L17130 51590
L17090 51560
L17060 51540
" />
<path d="M17590 51540
L17610 51560
L17590 51590
L17570 51560
L17590 51540
L17590 51590
" />
<path d="M17780 51090
L18090 51090
L17920 51280
L18000 51280
L18040 51300
L18070 51320
L18090 51370
L18090 51490
L18070 51540
L18040 51560
L18000 51590
L17850 51590
L17810 51560
L17780 51540
" />
<path d="M18240 51090
L18400 51590
L18570 51090
" />
</g>
<g style="fill:#008484; fill-opacity:0.0; 
stroke:#008484; stroke-width:0; stroke-opacity:1; 
stroke-linecap:round; stroke-linejoin:round;">
</g>
<g style="fill:#840000; fill-opacity:0.0; 
stroke:#840000; stroke-width:0; stroke-opacity:1; 
stroke-linecap:round; stroke-linejoin:round;">
</g>
<g style="fill:#840000; fill-opacity:0.0; 
stroke:#840000; stroke-width:60; stroke-opacity:1; 
stroke-linecap:round; stroke-linejoin:round;">
<polyline fill="none;"
points="21500,50000
21500,50500
22000,50500
21500,51000
21000,50500
21500,50500
" /> 
</g>
<g style="fill:#008484; fill-opacity:0.0; 
stroke:#008484; stroke-width:60; stroke-opacity:1; 
stroke-linecap:round; stroke-linejoin:round;">
<path d="M21120 51280
L21070 51260
L21000 51260
L20930 51280
L20880 51330
L20860 51380
L20840 51470
L20840 51540
L20860 51640
L20880 51680
L20930 51730
L21000 51760
L21050 51760
L21120 51730
L21140 51710
L21140 51540
L21050 51540
" />
<path d="M21360 51760
L21360 51260
L21640 51760
L21640 51260
" />
<path d="M21880 51760
L21880 51260
L22000 51260
L22070 51280
L22120 51330
L22140 51380
L22160 51470
L22160 51540
L22140 51640
L22120 51680
L22070 51730
L22000 51760
L21880 51760
" />
</g>
<g style="fill:#008484; fill-opacity:0.0; 
stroke:#008484; stroke-width:0; stroke-opacity:1; 
stroke-linecap:round; stroke-linejoin:round;">
</g>
<g style="fill:#840000; fill-opacity:0.0; 
stroke:#840000; stroke-width:0; stroke-opacity:1; 
stroke-linecap:round; stroke-linejoin:round;">
</g>
<g style="fill:#FFFFC2; fill-opacity:0.0; 
stroke:#FFFFC2; stroke-width:0; stroke-opacity:1; 
stroke-linecap:round; stroke-linejoin:round;">
</g>
<g style="fill:#FFFFC2; fill-opacity:0.6; 
stroke:#FFFFC2; stroke-width:0; stroke-opacity:1; 
stroke-linecap:round; stroke-linejoin:round;">
<rect x="24250" y="12000" width="5500" height="1500" rx="0" />
</g>
<g style="fill:#840000; fill-opacity:0.6; 
stroke:#840000; stroke-width:0; stroke-opacity:1; 
stroke-linecap:round; stroke-linejoin:round;">
</g>
<g style="fill:#840000; fill-opacity:0.0; 
stroke:#840000; stroke-width:100; stroke-opacity:1; 
stroke-linecap:round; stroke-linejoin:round;">
<rect x="24250" y="12000" width="5500" height="1500" rx="0" />
<circle cx="25000" cy="12750" r="500" /> 
<circle cx="27000" cy="12750" r="500" /> 
<circle cx="29000" cy="12750" r="500" /> 
<polyline fill="none;"
points="27250,12350
26600,13000
" /> 
<polyline fill="none;"
points="25400,12500
24750,13150
" /> 
<polyline fill="none;"
points="29400,12500
28750,13150
" /> 
<polyline fill="none;"
points="24600,13000
25250,12350
" /> 
<polyline fill="none;"
points="28600,13000
29250,12350
" /> 
<polyline fill="none;"
points="26750,13150
27400,12500
" /> 
</g>
<g style="fill:#840000; fill-opacity:0.0; 
stroke:#840000; stroke-width:60; stroke-opacity:1; 
stroke-linecap:round; stroke-linejoin:round;">
<path d="M29000 13500
L29000 14500
" />
<path d="M28880 13860
L28880 14140
" />
<path d="M28880 14000
L28380 14000
L28450 14050
L28500 14100
L28520 14140
" />
<path d="M27000 13500
L27000 14500
" />
<path d="M26420 14140
L26400 14120
L26380 14070
L26380 13950
L26400 13910
L26420 13880
L26470 13860
L26520 13860
L26590 13880
L26880 14170
L26880 13860
" />
<path d="M25000 13500
L25000 14500
" />
<path d="M24380 14170
L24380 13860
L24570 14030
L24570 13950
L24590 13910
L24610 13880
L24660 13860
L24780 13860
L24830 13880
L24850 13910
L24880 13950
L24880 14100
L24850 14140
L24830 14170
" />
</g>
<g style="fill:#008484; fill-opacity:0.0; 
stroke:#008484; stroke-width:60; stroke-opacity:1; 
stroke-linecap:round; stroke-linejoin:round;">
<path d="M26830 11040
L26830 11390
L26810 11460
L26760 11510
L26690 11540
L26640 11540
" />
<path d="M27050 11080
L27070 11060
L27120 11040
L27240 11040
L27280 11060
L27310 11080
L27330 11130
L27330 11180
L27310 11250
L27020 11540
L27330 11540
" />
</g>
<g style="fill:#008484; fill-opacity:0.0; 
stroke:#008484; stroke-width:0; stroke-opacity:1; 
stroke-linecap:round; stroke-linejoin:round;">
</g>
<g style="fill:#840000; fill-opacity:0.0; 
stroke:#840000; stroke-width:0; stroke-opacity:1; 
stroke-linecap:round; stroke-linejoin:round;">
</g>
<g style="fill:#FFFFC2; fill-opacity:0.0; 
stroke:#FFFFC2; stroke-width:0; stroke-opacity:1; 
stroke-linecap:round; stroke-linejoin:round;">
</g>
<g style="fill:#FFFFC2; fill-opacity:0.6; 
stroke:#FFFFC2; stroke-width:0; stroke-opacity:1; 
stroke-linecap:round; stroke-linejoin:round;">
<rect x="33250" y="12000" width="5500" height="1500" rx="0" />
</g>
<g style="fill:#840000; fill-opacity:0.6; 
stroke:#840000; stroke-width:0; stroke-opacity:1; 
stroke-linecap:round; stroke-linejoin:round;">
</g>
<g style="fill:#840000; fill-opacity:0.0; 
stroke:#840000; stroke-width:100; stroke-opacity:1; 
stroke-linecap:round; stroke-linejoin:round;">
<rect x="33250" y="12000" width="5500" height="1500" rx="0" />
<circle cx="34000" cy="12750" r="500" /> 
<circle cx="36000" cy="12750" r="500" /> 
<circle cx="38000" cy="12750" r="500" /> 
<polyline fill="none;"
points="36250,12350
35600,13000
" /> 
<polyline fill="none;"
points="34400,12500
33750,13150
" /> 
<polyline fill="none;"
points="38400,12500
37750,13150
" /> 
<polyline fill="none;"
points="33600,13000
34250,12350
" /> 
<polyline fill="none;"
points="37600,13000
38250,12350
" /> 
<polyline fill="none;"
points="35750,13150
36400,12500
" /> 
</g>
<g style="fill:#840000; fill-opacity:0.0; 
stroke:#840000; stroke-width:60; stroke-opacity:1; 
stroke-linecap:round; stroke-linejoin:round;">
<path d="M38000 13500
L38000 14500
" />
<path d="M37880 13860
L37880 14140
" />
<path d="M37880 14000
L37380 14000
L37450 14050
L37500 14100
L37520 14140
" />
<path d="M36000 13500
L36000 14500
" />
<path d="M35420 14140
L35400 14120
L35380 14070
L35380 13950
L35400 13910
L35420 13880
L35470 13860
L35520 13860
L35590 13880
L35880 14170
L35880 13860
" />
<path d="M34000 13500
L34000 14500
" />
<path d="M33380 14170
L33380 13860
L33570 14030
L33570 13950
L33590 13910
L33610 13880
L33660 13860
L33780 13860
L33830 13880
L33850 13910
L33880 13950
L33880 14100
L33850 14140
L33830 14170
" />
</g>
<g style="fill:#008484; fill-opacity:0.0; 
stroke:#008484; stroke-width:60; stroke-opacity:1; 
stroke-linecap:round; stroke-linejoin:round;">
<path d="M35830 11040
L35830 11390
L35810 11460
L35760 11510
L35690 11540
L35640 11540
" />
<path d="M36330 11540
L36050 11540
" />
<path d="M36190 11540
L36190 11040
L36140 11110
L36090 11160
L36050 11180
" />
</g>
<g style="fill:#008400; fill-opacity:0.0; 
stroke:#008400; stroke-width:60; stroke-opacity:1; 
stroke-linecap:round; stroke-linejoin:round;">
<path d="M24500 35500
L25000 35500
" />
<path d="M25000 35500
L25500 35500
" />
<path d="M28500 28500
L28500 30000
" />
<path d="M28500 30000
L28500 33500
" />
</g>
<g style="fill:#008400; fill-opacity:0.0; 
stroke:#008400; stroke-width:0; stroke-opacity:1; 
stroke-linecap:round; stroke-linejoin:round;">
</g>
<g style="fill:#008400; fill-opacity:1.0; 
stroke:#008400; stroke-width:100; stroke-opacity:1; 
stroke-linecap:round; stroke-linejoin:round;">
<circle cx="28500" cy="30000" r="200" /> 
</g>
<g style="fill:#008400; fill-opacity:1.0; 
stroke:#008400; stroke-width:60; stroke-opacity:1; 
stroke-linecap:round; stroke-linejoin:round;">
</g>
<g style="fill:#008400; fill-opacity:0.0; 
stroke:#008400; stroke-width:60; stroke-opacity:1; 
stroke-linecap:round; stroke-linejoin:round;">
<path d="M31500 28500
L31500 30000
" />
<path d="M31500 30000
L31500 31000
" />
</g>
<g style="fill:#008400; fill-opacity:0.0; 
stroke:#008400; stroke-width:0; stroke-opacity:1; 
stroke-linecap:round; stroke-linejoin:round;">
</g>
<g style="fill:#008400; fill-opacity:1.0; 
stroke:#008400; stroke-width:100; stroke-opacity:1; 
stroke-linecap:round; stroke-linejoin:round;">
<circle cx="31500" cy="30000" r="200" /> 
</g>
<g style="fill:#008400; fill-opacity:1.0; 
stroke:#008400; stroke-width:60; stroke-opacity:1; 
stroke-linecap:round; stroke-linejoin:round;">
</g>
<g style="fill:#008400; fill-opacity:0.0; 
stroke:#008400; stroke-width:60; stroke-opacity:1; 
stroke-linecap:round; stroke-linejoin:round;">
<path d="M34500 28500
L34500 30000
" />
<path d="M34500 30000
L34500 33500
" />
<path d="M28500 37500
L31500 37500
" />
<path d="M31500 37500
L34500 37500
" />
</g>
<g style="fill:#008400; fill-opacity:0.0; 
stroke:#008400; stroke-width:0; stroke-opacity:1; 
stroke-linecap:round; stroke-linejoin:round;">
</g>
<g style="fill:#008400; fill-opacity:1.0; 
stroke:#008400; stroke-width:100; stroke-opacity:1; 
stroke-linecap:round; stroke-linejoin:round;">
<circle cx="34500" cy="30000" r="200" /> 
</g>
<g style="fill:#008400; fill-opacity:1.0; 
stroke:#008400; stroke-width:0; stroke-opacity:1; 
stroke-linecap:round; stroke-linejoin:round;">
</g>
<g style="fill:#008400; fill-opacity:1.0; 
stroke:#008400; stroke-width:100; stroke-opacity:1; 
stroke-linecap:round; stroke-linejoin:round;">
<circle cx="31500" cy="37500" r="200" /> 
</g>
<g style="fill:#008400; fill-opacity:1.0; 
stroke:#008400; stroke-width:60; stroke-opacity:1; 
stroke-linecap:round; stroke-linejoin:round;">
</g>
<g style="fill:#008400; fill-opacity:0.0; 
stroke:#008400; stroke-width:60; stroke-opacity:1; 
stroke-linecap:round; stroke-linejoin:round;">
<path d="M25000 35500
L25000 36500
" />
</g>
<g style="fill:#008400; fill-opacity:0.0; 
stroke:#008400; stroke-width:0; stroke-opacity:1; 
stroke-linecap:round; stroke-linejoin:round;">
</g>
<g style="fill:#008400; fill-opacity:1.0; 
stroke:#008400; stroke-width:100; stroke-opacity:1; 
stroke-linecap:round; stroke-linejoin:round;">
<circle cx="25000" cy="35500" r="200" /> 
</g>
<g style="fill:#008400; fill-opacity:1.0; 
stroke:#008400; stroke-width:60; stroke-opacity:1; 
stroke-linecap:round; stroke-linejoin:round;">
</g>
<g style="fill:#008400; fill-opacity:0.0; 
stroke:#008400; stroke-width:60; stroke-opacity:1; 
stroke-linecap:round; stroke-linejoin:round;">
<path d="M37500 35500
L38000 35500
" />
<path d="M38000 35500
L38500 35500
" />
<path d="M38000 36500
L38000 35500
" />
</g>
<g style="fill:#008400; fill-opacity:0.0; 
stroke:#008400; stroke-width:0; stroke-opacity:1; 
stroke-linecap:round; stroke-linejoin:round;">
</g>
<g style="fill:#008400; fill-opacity:1.0; 
stroke:#008400; stroke-width:100; stroke-opacity:1; 
stroke-linecap:round; stroke-linejoin:round;">
<circle cx="38000" cy="35500" r="200" /> 
</g>
<g style="fill:#008400; fill-opacity:1.0; 
stroke:#008400; stroke-width:60; stroke-opacity:1; 
stroke-linecap:round; stroke-linejoin:round;">
</g>
<g style="fill:#008400; fill-opacity:0.0; 
stroke:#008400; stroke-width:60; stroke-opacity:1; 
stroke-linecap:round; stroke-linejoin:round;">
<path d="M42500 42500
L42500 35500
" />
<path d="M42500 35500
L41500 35500
" />
<path d="M38000 40000
L38000 39500
" />
<path d="M25000 40000
L25000 39500
" />
<path d="M42500 42500
L27500 42500
" />
<path d="M27500 42500
L27500 45000
" />
<path d="M20500 35500
L20500 42500
" />
<path d="M20500 42500
L26500 42500
" />
<path d="M26500 42500
L26500 45000
" />
<path d="M20500 35500
L21500 35500
" />
<path d="M36500 56000
L36500 57500
" />
<path d="M33500 57000
L34500 57000
" />
<path d="M34500 57000
L34500 56000
" />
<path d="M17500 48500
L17500 50000
" />
<path d="M21500 48500
L21500 50000
" />
<path d="M29000 15500
L34000 15500
" />
<path d="M38000 14500
L38000 22000
" />
<path d="M38000 22000
L37000 22000
" />
<path d="M29000 14500
L29000 15500
" />
<path d="M34000 15500
L34000 14500
" />
<path d="M27000 14500
L27000 17000
" />
<path d="M27000 17000
L36000 17000
" />
<path d="M36000 17000
L36000 14500
" />
<path d="M25000 14500
L25000 22000
" />
<path d="M25000 22000
L26000 22000
" />
</g>
<g style="fill:#008400; fill-opacity:0.0; 
stroke:#008400; stroke-width:0; stroke-opacity:1; 
stroke-linecap:round; stroke-linejoin:round;">
</g>
<g style="fill:#840000; fill-opacity:0.0; 
stroke:#840000; stroke-width:0; stroke-opacity:1; 
stroke-linecap:round; stroke-linejoin:round;">
</g>
<g style="fill:#FFFFC2; fill-opacity:0.0; 
stroke:#FFFFC2; stroke-width:0; stroke-opacity:1; 
stroke-linecap:round; stroke-linejoin:round;">
</g>
<g style="fill:#FFFFC2; fill-opacity:0.6; 
stroke:#FFFFC2; stroke-width:0; stroke-opacity:1; 
stroke-linecap:round; stroke-linejoin:round;">
<rect x="11750" y="12000" width="3500" height="1500" rx="0" />
</g>
<g style="fill:#840000; fill-opacity:0.6; 
stroke:#840000; stroke-width:0; stroke-opacity:1; 
stroke-linecap:round; stroke-linejoin:round;">
</g>
<g style="fill:#840000; fill-opacity:0.0; 
stroke:#840000; stroke-width:100; stroke-opacity:1; 
stroke-linecap:round; stroke-linejoin:round;">
<rect x="11750" y="12000" width="3500" height="1500" rx="0" />
<circle cx="12500" cy="12750" r="500" /> 
<circle cx="14500" cy="12750" r="500" /> 
<polyline fill="none;"
points="12750,12350
12100,13000
" /> 
<polyline fill="none;"
points="14900,12500
14250,13150
" /> 
<polyline fill="none;"
points="14100,13000
14750,12350
" /> 
<polyline fill="none;"
points="12250,13150
12900,12500
" /> 
</g>
<g style="fill:#840000; fill-opacity:0.0; 
stroke:#840000; stroke-width:60; stroke-opacity:1; 
stroke-linecap:round; stroke-linejoin:round;">
<path d="M14500 13500
L14500 14500
" />
<path d="M14380 13860
L14380 14140
" />
<path d="M14380 14000
L13880 14000
L13950 14050
L14000 14100
L14020 14140
" />
<path d="M12500 13500
L12500 14500
" />
<path d="M11920 14140
L11900 14120
L11880 14070
L11880 13950
L11900 13910
L11920 13880
L11970 13860
L12020 13860
L12090 13880
L12380 14170
L12380 13860
" />
</g>
<g style="fill:#008484; fill-opacity:0.0; 
stroke:#008484; stroke-width:60; stroke-opacity:1; 
stroke-linecap:round; stroke-linejoin:round;">
<path d="M13330 11040
L13330 11390
L13310 11460
L13260 11510
L13190 11540
L13140 11540
" />
<path d="M13520 11040
L13830 11040
L13660 11230
L13740 11230
L13780 11250
L13810 11270
L13830 11320
L13830 11440
L13810 11490
L13780 11510
L13740 11540
L13590 11540
L13550 11510
L13520 11490
" />
</g>
<g style="fill:#008484; fill-opacity:0.0; 
stroke:#008484; stroke-width:0; stroke-opacity:1; 
stroke-linecap:round; stroke-linejoin:round;">
</g>
<g style="fill:#840000; fill-opacity:0.0; 
stroke:#840000; stroke-width:0; stroke-opacity:1; 
stroke-linecap:round; stroke-linejoin:round;">
</g>
<g style="fill:#840000; fill-opacity:0.0; 
stroke:#840000; stroke-width:60; stroke-opacity:1; 
stroke-linecap:round; stroke-linejoin:round;">
<rect x="12000" y="21500" width="3000" height="3000" rx="0" />
<polyline fill="none;"
points="13200,21900
13200,22500
" /> 
<polyline fill="none;"
points="13700,22700
13700,23300
" /> 
<polyline fill="none;"
points="13900,23700
13100,23700
" /> 
<polyline fill="none;"
points="13000,24000
13300,23700
" /> 
<polyline fill="none;"
points="13000,24000
13000,24500
" /> 
<polyline fill="none;"
points="14000,21500
14000,22200
13700,22200
" /> 
<polyline fill="none;"
points="13000,22200
13000,23000
13200,23000
" /> 
<polyline fill="none;"
points="13200,22200
13000,22200
13000,21500
" /> 
<polyline fill="none;"
points="13700,23000
14000,23000
14000,22200
" /> 
<polyline fill="none;"
points="14000,24500
14000,24000
13700,23700
" /> 
<polyline fill="none;"
points="13700,21900
13700,22500
13200,22200
13700,21900
" /> 
<polyline fill="none;"
points="13700,23000
13200,22700
13200,23300
13700,23000
" /> 
<polyline fill="none;"
points="13000,24000
13200,23900
13100,23800
13000,24000
" /> 
<polyline fill="none;"
points="13900,23300
14200,23600
14100,23400
14000,23500
14200,23600
14100,23500
" /> 
<path d="M14000 21500
L14000 19500
" />
<path d="M13880 20360
L13880 20640
" />
<path d="M13880 20500
L13380 20500
L13450 20550
L13500 20600
L13520 20640
" />
<path d="M13000 21500
L13000 19500
" />
<path d="M12420 20640
L12400 20620
L12380 20570
L12380 20450
L12400 20410
L12420 20380
L12470 20360
L12520 20360
L12590 20380
L12880 20670
L12880 20360
" />
<path d="M13000 24500
L13000 26500
" />
<path d="M12380 25670
L12380 25360
L12570 25530
L12570 25450
L12590 25410
L12610 25380
L12660 25360
L12780 25360
L12830 25380
L12850 25410
L12880 25450
L12880 25600
L12850 25640
L12830 25670
" />
<path d="M14000 24500
L14000 26500
" />
<path d="M13540 25410
L13880 25410
" />
<path d="M13350 25530
L13710 25640
L13710 25340
" />
</g>
<g style="fill:#008484; fill-opacity:0.0; 
stroke:#008484; stroke-width:60; stroke-opacity:1; 
stroke-linecap:round; stroke-linejoin:round;">
<path d="M15360 22710
L15470 22710
L15530 22740
L15590 22800
L15610 22910
L15610 23110
L15590 23230
L15530 23280
L15470 23310
L15360 23310
L15300 23280
L15240 23230
L15210 23110
L15210 22910
L15240 22800
L15300 22740
L15360 22710
" />
<path d="M16220 23250
L16190 23280
L16100 23310
L16040 23310
L15960 23280
L15900 23230
L15870 23170
L15840 23050
L15840 22970
L15870 22850
L15900 22800
L15960 22740
L16040 22710
L16100 22710
L16190 22740
L16220 22770
" />
<path d="M16790 23310
L16440 23310
" />
<path d="M16620 23310
L16620 22710
L16560 22800
L16500 22850
L16440 22880
" />
</g>
<g style="fill:#008400; fill-opacity:0.0; 
stroke:#008400; stroke-width:60; stroke-opacity:1; 
stroke-linecap:round; stroke-linejoin:round;">
<path d="M12500 14500
L12500 19500
" />
<path d="M12500 19500
L13000 19500
" />
<path d="M14000 19500
L14500 19500
" />
</g>
<g style="fill:#008400; fill-opacity:0.0; 
stroke:#008400; stroke-width:0; stroke-opacity:1; 
stroke-linecap:round; stroke-linejoin:round;">
</g>
<g style="fill:#840000; fill-opacity:0.0; 
stroke:#840000; stroke-width:0; stroke-opacity:1; 
stroke-linecap:round; stroke-linejoin:round;">
</g>
<g style="fill:#840000; fill-opacity:0.0; 
stroke:#840000; stroke-width:100; stroke-opacity:1; 
stroke-linecap:round; stroke-linejoin:round;">
<rect x="14100" y="16000" width="800" height="2000" rx="0" />
</g>
<g style="fill:#840000; fill-opacity:0.0; 
stroke:#840000; stroke-width:60; stroke-opacity:1; 
stroke-linecap:round; stroke-linejoin:round;">
<path d="M14500 18000
L14500 18500
" />
<path d="M14500 16000
L14500 15500
" />
</g>
<g style="fill:#008484; fill-opacity:0.0; 
stroke:#008484; stroke-width:60; stroke-opacity:1; 
stroke-linecap:round; stroke-linejoin:round;">
<path d="M15690 17090
L15450 17250
" />
<path d="M15690 17370
L15190 17370
L15190 17180
L15210 17130
L15230 17110
L15280 17090
L15350 17090
L15400 17110
L15420 17130
L15450 17180
L15450 17370
" />
<path d="M15190 16630
L15190 16870
L15420 16890
L15400 16870
L15380 16820
L15380 16700
L15400 16660
L15420 16630
L15470 16610
L15590 16610
L15640 16630
L15660 16660
L15690 16700
L15690 16820
L15660 16870
L15640 16890
" />
<path d="M13690 17580
L13690 17860
" />
<path d="M13690 17720
L13190 17720
L13260 17770
L13310 17820
L13330 17860
" />
<path d="M13190 17270
L13190 17220
L13210 17170
L13230 17150
L13280 17120
L13380 17100
L13500 17100
L13590 17120
L13640 17150
L13660 17170
L13690 17220
L13690 17270
L13660 17310
L13640 17340
L13590 17360
L13500 17380
L13380 17380
L13280 17360
L13230 17340
L13210 17310
L13190 17270
" />
<path d="M13690 16880
L13190 16880
" />
<path d="M13500 16830
L13690 16690
" />
<path d="M13350 16690
L13540 16880
" />
<path d="M13690 16500
L13690 16390
L13590 16390
L13570 16430
L13520 16480
L13450 16500
L13330 16500
L13260 16480
L13210 16430
L13190 16360
L13190 16270
L13210 16200
L13260 16150
L13330 16120
L13450 16120
L13520 16150
L13570 16200
L13590 16240
L13690 16240
L13690 16120
" />
</g>
<g style="fill:#008400; fill-opacity:0.0; 
stroke:#008400; stroke-width:60; stroke-opacity:1; 
stroke-linecap:round; stroke-linejoin:round;">
<path d="M14500 14500
L14500 15500
" />
<path d="M14500 19500
L14500 18500
" />
</g>
<g style="fill:#008400; fill-opacity:0.0; 
stroke:#008400; stroke-width:0; stroke-opacity:1; 
stroke-linecap:round; stroke-linejoin:round;">
</g>
<g style="fill:#840000; fill-opacity:0.0; 
stroke:#840000; stroke-width:0; stroke-opacity:1; 
stroke-linecap:round; stroke-linejoin:round;">
</g>
<g style="fill:#840000; fill-opacity:0.0; 
stroke:#840000; stroke-width:100; stroke-opacity:1; 
stroke-linecap:round; stroke-linejoin:round;">
<rect x="17100" y="27500" width="800" height="2000" rx="0" />
</g>
<g style="fill:#840000; fill-opacity:0.0; 
stroke:#840000; stroke-width:60; stroke-opacity:1; 
stroke-linecap:round; stroke-linejoin:round;">
<path d="M17500 27500
L17500 27000
" />
<path d="M17500 29500
L17500 30000
" />
</g>
<g style="fill:#008484; fill-opacity:0.0; 
stroke:#008484; stroke-width:60; stroke-opacity:1; 
stroke-linecap:round; stroke-linejoin:round;">
<path d="M16760 28590
L16520 28750
" />
<path d="M16760 28870
L16260 28870
L16260 28680
L16280 28630
L16300 28610
L16350 28590
L16420 28590
L16470 28610
L16490 28630
L16520 28680
L16520 28870
" />
<path d="M16260 28160
L16260 28250
L16280 28300
L16300 28320
L16380 28370
L16470 28390
L16660 28390
L16710 28370
L16730 28350
L16760 28300
L16760 28200
L16730 28160
L16710 28130
L16660 28110
L16540 28110
L16490 28130
L16470 28160
L16450 28200
L16450 28300
L16470 28350
L16490 28370
L16540 28390
" />
<path d="M18760 29070
L18760 29350
" />
<path d="M18760 29210
L18260 29210
L18330 29260
L18380 29310
L18400 29350
" />
<path d="M18260 28760
L18260 28710
L18280 28660
L18300 28640
L18350 28610
L18450 28590
L18570 28590
L18660 28610
L18710 28640
L18730 28660
L18760 28710
L18760 28760
L18730 28800
L18710 28830
L18660 28850
L18570 28870
L18450 28870
L18350 28850
L18300 28830
L18280 28800
L18260 28760
" />
<path d="M18760 28370
L18260 28370
" />
<path d="M18570 28320
L18760 28180
" />
<path d="M18420 28180
L18610 28370
" />
<path d="M18760 27990
L18760 27880
L18660 27880
L18640 27920
L18590 27970
L18520 27990
L18400 27990
L18330 27970
L18280 27920
L18260 27850
L18260 27760
L18280 27690
L18330 27640
L18400 27610
L18520 27610
L18590 27640
L18640 27690
L18660 27730
L18760 27730
L18760 27610
" />
</g>
<g style="fill:#008484; fill-opacity:0.0; 
stroke:#008484; stroke-width:0; stroke-opacity:1; 
stroke-linecap:round; stroke-linejoin:round;">
</g>
<g style="fill:#840000; fill-opacity:0.0; 
stroke:#840000; stroke-width:0; stroke-opacity:1; 
stroke-linecap:round; stroke-linejoin:round;">
</g>
<g style="fill:#840000; fill-opacity:0.0; 
stroke:#840000; stroke-width:60; stroke-opacity:1; 
stroke-linecap:round; stroke-linejoin:round;">
<polyline fill="none;"
points="17200,26000
17500,25500
" /> 
<polyline fill="none;"
points="17500,26500
17500,25500
" /> 
<polyline fill="none;"
points="17500,25500
17800,26000
" /> 
</g>
<g style="fill:#008484; fill-opacity:0.0; 
stroke:#008484; stroke-width:60; stroke-opacity:1; 
stroke-linecap:round; stroke-linejoin:round;">
<path d="M16500 25170
L16880 25170
" />
<path d="M16690 25360
L16690 24980
" />
<path d="M17070 24860
L17380 24860
L17210 25050
L17290 25050
L17330 25070
L17360 25090
L17380 25140
L17380 25260
L17360 25310
L17330 25330
L17290 25360
L17140 25360
L17100 25330
L17070 25310
" />
<path d="M17600 25310
L17620 25330
L17600 25360
L17580 25330
L17600 25310
L17600 25360
" />
<path d="M17790 24860
L18100 24860
L17930 25050
L18010 25050
L18050 25070
L18080 25090
L18100 25140
L18100 25260
L18080 25310
L18050 25330
L18010 25360
L17860 25360
L17820 25330
L17790 25310
" />
<path d="M18250 24860
L18410 25360
L18580 24860
" />
</g>
<g style="fill:#008400; fill-opacity:0.0; 
stroke:#008400; stroke-width:60; stroke-opacity:1; 
stroke-linecap:round; stroke-linejoin:round;">
<path d="M17500 27000
L17500 26500
" />
</g>
<g style="fill:#008400; fill-opacity:0.0; 
stroke:#008400; stroke-width:0; stroke-opacity:1; 
stroke-linecap:round; stroke-linejoin:round;">
</g>
<g style="fill:#840000; fill-opacity:0.0; 
stroke:#840000; stroke-width:0; stroke-opacity:1; 
stroke-linecap:round; stroke-linejoin:round;">
</g>
<g style="fill:#840000; fill-opacity:0.0; 
stroke:#840000; stroke-width:200; stroke-opacity:1; 
stroke-linecap:round; stroke-linejoin:round;">
<polyline fill="none;"
points="13200,33800
14800,33800
" /> 
<polyline fill="none;"
points="13200,33200
14800,33200
" /> 
</g>
<g style="fill:#840000; fill-opacity:0.0; 
stroke:#840000; stroke-width:60; stroke-opacity:1; 
stroke-linecap:round; stroke-linejoin:round;">
<path d="M14000 33100
L14000 32000
" />
<path d="M14000 33900
L14000 35000
" />
</g>
<g style="fill:#008484; fill-opacity:0.0; 
stroke:#008484; stroke-width:60; stroke-opacity:1; 
stroke-linecap:round; stroke-linejoin:round;">
<path d="M14650 32710
L14630 32730
L14560 32760
L14510 32760
L14440 32730
L14390 32680
L14370 32640
L14350 32540
L14350 32470
L14370 32380
L14390 32330
L14440 32280
L14510 32260
L14560 32260
L14630 32280
L14650 32300
" />
<path d="M15130 32760
L14850 32760
" />
<path d="M14990 32760
L14990 32260
L14940 32330
L14890 32380
L14850 32400
" />
<path d="M14460 34260
L14510 34260
L14560 34280
L14580 34300
L14610 34350
L14630 34450
L14630 34570
L14610 34660
L14580 34710
L14560 34730
L14510 34760
L14460 34760
L14420 34730
L14390 34710
L14370 34660
L14350 34570
L14350 34450
L14370 34350
L14390 34300
L14420 34280
L14460 34260
" />
<path d="M14850 34710
L14870 34730
L14850 34760
L14830 34730
L14850 34710
L14850 34760
" />
<path d="M15350 34760
L15070 34760
" />
<path d="M15210 34760
L15210 34260
L15160 34330
L15110 34380
L15070 34400
" />
<path d="M15570 34420
L15570 34920
" />
<path d="M15810 34680
L15830 34730
L15880 34760
" />
<path d="M15570 34680
L15590 34730
L15640 34760
L15740 34760
L15780 34730
L15810 34680
L15810 34420
" />
<path d="M16260 34490
L16090 34490
" />
<path d="M16090 34760
L16090 34260
L16330 34260
" />
</g>
<g style="fill:#008400; fill-opacity:0.0; 
stroke:#008400; stroke-width:60; stroke-opacity:1; 
stroke-linecap:round; stroke-linejoin:round;">
<path d="M14000 26500
L14000 30500
" />
<path d="M14000 30500
L14000 32000
" />
</g>
<g style="fill:#008400; fill-opacity:0.0; 
stroke:#008400; stroke-width:0; stroke-opacity:1; 
stroke-linecap:round; stroke-linejoin:round;">
</g>
<g style="fill:#008400; fill-opacity:1.0; 
stroke:#008400; stroke-width:100; stroke-opacity:1; 
stroke-linecap:round; stroke-linejoin:round;">
<circle cx="14000" cy="30500" r="200" /> 
</g>
<g style="fill:#008400; fill-opacity:1.0; 
stroke:#008400; stroke-width:60; stroke-opacity:1; 
stroke-linecap:round; stroke-linejoin:round;">
</g>
<g style="fill:#008400; fill-opacity:0.0; 
stroke:#008400; stroke-width:60; stroke-opacity:1; 
stroke-linecap:round; stroke-linejoin:round;">
<path d="M33500 57000
L33500 57500
" />
<path d="M14000 35000
L14000 60000
" />
<path d="M14000 60000
L45000 60000
" />
<path d="M45000 60000
L45000 44000
" />
<path d="M45000 44000
L33500 44000
" />
<path d="M33500 44000
L33500 45000
" />
</g>
<g style="fill:#008400; fill-opacity:0.0; 
stroke:#008400; stroke-width:0; stroke-opacity:1; 
stroke-linecap:round; stroke-linejoin:round;">
</g>
<g style="fill:#840000; fill-opacity:0.0; 
stroke:#840000; stroke-width:0; stroke-opacity:1; 
stroke-linecap:round; stroke-linejoin:round;">
</g>
<g style="fill:#840000; fill-opacity:0.0; 
stroke:#840000; stroke-width:60; stroke-opacity:1; 
stroke-linecap:round; stroke-linejoin:round;">
<polyline fill="none;"
points="13000,27500
13000,28000
13500,28000
13000,28500
12500,28000
13000,28000
" /> 
</g>
<g style="fill:#008484; fill-opacity:0.0; 
stroke:#008484; stroke-width:60; stroke-opacity:1; 
stroke-linecap:round; stroke-linejoin:round;">
<path d="M12620 28780
L12570 28760
L12500 28760
L12430 28780
L12380 28830
L12360 28880
L12340 28970
L12340 29040
L12360 29140
L12380 29180
L12430 29230
L12500 29260
L12550 29260
L12620 29230
L12640 29210
L12640 29040
L12550 29040
" />
<path d="M12860 29260
L12860 28760
L13140 29260
L13140 28760
" />
<path d="M13380 29260
L13380 28760
L13500 28760
L13570 28780
L13620 28830
L13640 28880
L13660 28970
L13660 29040
L13640 29140
L13620 29180
L13570 29230
L13500 29260
L13380 29260
" />
</g>
<g style="fill:#008400; fill-opacity:0.0; 
stroke:#008400; stroke-width:60; stroke-opacity:1; 
stroke-linecap:round; stroke-linejoin:round;">
<path d="M13000 26500
L13000 27500
" />
<path d="M17500 30000
L17500 30500
" />
<path d="M17500 30500
L14000 30500
" />
</g> 
</svg>
