<svg height="210mm" viewBox="0 0 4455 3150" width="297mm" xmlns="http://www.w3.org/2000/svg" xmlns:xlink="http://www.w3.org/1999/xlink"><defs><g id="a"><path d="m0 0h57.735027l-28.867514 50zm0 50h57.735027zm28.867513-50v-10m0 60v10" fill="none" stroke="#000" stroke-linecap="round" stroke-linejoin="round" stroke-width="4"/></g><g id="b"><path d="m0 0h50v100h-50zm25 0v-10m0 110v10" fill="none" stroke="#000" stroke-linecap="round" stroke-linejoin="round" stroke-width="4"/></g><g id="c"><circle fill="none" r="75" stroke="#000" stroke-linecap="round" stroke-linejoin="round" stroke-width="4"/><path d="m-40-50v100h-30m50-110v30m0 15v30m0 15v30" fill="none" stroke="#000" stroke-linecap="round" stroke-linejoin="round" stroke-width="4"/><path d="m40 75v-150m0 120h-60m60-90h-60" fill="none" stroke="#000" stroke-linecap="round" stroke-linejoin="round" stroke-width="4"/><path d="m-15 0 15 4v-8z" fill-rule="evenodd" stroke="#000" stroke-linecap="round" stroke-linejoin="round" stroke-width="4"/><path d="m0 0h12v45" fill="none" stroke="#000" stroke-linecap="round" stroke-linejoin="round" stroke-width="4"/><path d="m40-13.856406-13.856406 25.856406h27.712812z" fill-rule="evenodd" stroke="#000" stroke-linecap="round" stroke-linejoin="round" stroke-width="4"/><path d="m40-13.856406h-14l-7 6.9999995m21-6.9999995h14l7-7" fill="none" stroke="#000" stroke-linecap="round" stroke-linejoin="round" stroke-width="4"/></g></defs><g fill="none" height="100%" transform="translate(1900 1800)" width="100%"><use height="100%" width="100%" xlink:href="#a"/><path id="d" d="m0 0 5-20h-10zm0-35v15" style="fill:#000;fill-rule:evenodd;stroke:#000;stroke-width:4;stroke-linecap:round;stroke-linejoin:round" transform="matrix(.5 -.8660254 .8660254 .5 90 30)"/><use height="100%" transform="translate(0 20)" width="100%" xlink:href="#d"/></g><use height="100%" transform="matrix(0 1 -1 0 2259.0308 869.35506)" width="100%" xlink:href="#a"/><path d="m0 0h100m0 25h-100m50-25v-10m0 35v10" fill="none" height="100%" stroke="#000" stroke-linecap="round" stroke-linejoin="round" stroke-width="4" transform="translate(1018.5356 1514.1784)" width="100%"/><g height="100%" transform="translate(3200 650)" width="100%"><path d="m0 0h200v625h-200z" fill="none" stroke="#000" stroke-linecap="round" stroke-linejoin="round" stroke-width="4"/><path d="m100 20v520" style="fill:none;stroke:#000;stroke-width:4;stroke-linecap:round;stroke-linejoin:round;stroke-dasharray:30 10 2 10"/><g id="e"><path d="m-10 75h85l50-25" fill="none" stroke="#000" stroke-linecap="round" stroke-linejoin="round" stroke-width="4"/><path d="m125 75h85" fill="none" stroke="#000" stroke-linecap="round" stroke-linejoin="round" stroke-width="4"/></g><use height="100%" transform="translate(0 100)" width="100%" xlink:href="#e"/><g id="f"><path d="m75 240h50v80h-50zm0 40h-85m135 0h40v100h-175" fill="none" stroke="#000" stroke-linecap="round" stroke-linejoin="round" stroke-width="4"/></g><use height="100%" transform="translate(0 200)" width="100%" xlink:href="#f"/></g><use height="100%" transform="matrix(0 -1 -1 0 2064.8305 1297.9999)" width="100%" xlink:href="#c"/><use height="100%" transform="translate(1905.5285 1309.8507)" width="100%" xlink:href="#b"/><use height="100%" transform="matrix(0 1 -1 0 1877.368 1441.9543)" width="100%" xlink:href="#b"/><path d="m1286.5555 1373.2902v500.0001h400v-500.0001z" fill="none" stroke="#000" stroke-linecap="round" stroke-linejoin="round" stroke-width="4"/><path d="m2546.791 2035.6976v499.9998h400v-499.9998z" fill="none" stroke="#000" stroke-linecap="round" stroke-linejoin="round" stroke-width="4"/><use height="100%" transform="translate(1905.5285 1629.8508)" width="100%" xlink:href="#b"/><use height="100%" transform="matrix(0 -1 -1 0 2524.8305 1297.9999)" width="100%" xlink:href="#c"/><use height="100%" transform="translate(2365.5285 1309.8507)" width="100%" xlink:href="#b"/><use height="100%" transform="matrix(0 1 -1 0 2337.368 1521.9544)" width="100%" xlink:href="#b"/><use height="100%" transform="matrix(0 1 -1 0 2739.0308 1129.355)" width="100%" xlink:href="#a"/><g fill="none" stroke="#000" stroke-width="4.233334"><path d="m3200.0001 722.18337h-2300.00009"/><path d="m3190 825h-500"/></g></svg>