<?xml version="1.0" encoding="UTF-8" standalone="no"?>
<svg
   xmlns:dc="http://purl.org/dc/elements/1.1/"
   xmlns:cc="http://creativecommons.org/ns#"
   xmlns:rdf="http://www.w3.org/1999/02/22-rdf-syntax-ns#"
   xmlns:svg="http://www.w3.org/2000/svg"
   xmlns="http://www.w3.org/2000/svg"
   xmlns:xlink="http://www.w3.org/1999/xlink"
   xmlns:sodipodi="http://sodipodi.sourceforge.net/DTD/sodipodi-0.dtd"
   xmlns:inkscape="http://www.inkscape.org/namespaces/inkscape"
   width="297mm"
   height="210mm"
   viewBox="0 0 4455 3150"
   id="svg3409"
   version="1.1"
   inkscape:version="0.91 r13725"
   sodipodi:docname="schema-relai-lit-electrique.svg">
  <metadata
     id="metadata4831">
    <rdf:RDF>
      <cc:Work
         rdf:about="">
        <dc:format>image/svg+xml</dc:format>
        <dc:type
           rdf:resource="http://purl.org/dc/dcmitype/StillImage" />
        <dc:title />
      </cc:Work>
    </rdf:RDF>
  </metadata>
  <sodipodi:namedview
     pagecolor="#ffffff"
     bordercolor="#666666"
     borderopacity="1"
     objecttolerance="10000"
     gridtolerance="10"
     guidetolerance="10"
     inkscape:pageopacity="0"
     inkscape:pageshadow="2"
     inkscape:window-width="2556"
     inkscape:window-height="1395"
     id="namedview4829"
     showgrid="true"
     inkscape:zoom="45.254834"
     inkscape:cx="739.33376"
     inkscape:cy="543.43399"
     inkscape:window-x="4"
     inkscape:window-y="1"
     inkscape:window-maximized="1"
     inkscape:current-layer="svg3409"
     fit-margin-top="0"
     fit-margin-left="0"
     fit-margin-right="0"
     fit-margin-bottom="0"
     showguides="false">
    <inkscape:grid
       type="xygrid"
       id="grid3465"
       spacingx="10"
       spacingy="10"
       dotted="true" />
  </sodipodi:namedview>
  <defs
     id="defs3411">
    <g
       id="DIODE">
      <path
         style="fill:none;fill-rule:evenodd;stroke:#000000;stroke-width:4px;stroke-linecap:round;stroke-linejoin:round;stroke-opacity:1"
         d="M 0,0 57.735027,0 28.867513,50 Z m 0,50 57.735027,0 z m 28.867513,-50 0,-10 m 0,60 0,10"
         id="path3355"
         inkscape:connector-curvature="0" />
    </g>
    <g
       id="LED">
      <use
         xlink:href="#DIODE"
         id="use3431"
         x="0"
         y="0"
         width="100%"
         height="100%" />
      <path
         style="fill:#000000;fill-rule:evenodd;stroke:#000000;stroke-width:4px;stroke-linecap:round;stroke-linejoin:round;stroke-opacity:1"
         d="m 0,0 5,-20 -10,0 5,20 m 0,-35 0,15"
         id="FLECHE-LED"
         transform="matrix(0.5,-0.8660254,0.8660254,0.5,90,30)"
         inkscape:connector-curvature="0" />
      <use
         xlink:href="#FLECHE-LED"
         transform="translate(0,20)"
         id="use3543"
         x="0"
         y="0"
         width="100%"
         height="100%" />
    </g>
    <g
       id="RESISTANCE">
      <path
         style="fill:none;fill-rule:evenodd;stroke:#000000;stroke-width:4px;stroke-linecap:round;stroke-linejoin:round;stroke-opacity:1"
         d="m 0,0 50,0 0,100 -50,0 z m 25,0 0,-10 m 0,110 0,10"
         id="path3468"
         inkscape:connector-curvature="0" />
    </g>
    <g
       id="CONDENSATEUR">
      <path
         style="fill:none;fill-rule:evenodd;stroke:#000000;stroke-width:4px;stroke-linecap:round;stroke-linejoin:round;stroke-opacity:1"
         d="M 0,0 100,0 M 100,25 0,25 M 50,0 50,-10 m 0,35 0,10"
         id="path3381"
         inkscape:connector-curvature="0" />
    </g>
    <g
       id="RELAI-BISTABLE">
      <path
         id="path3395"
         style="fill:none;fill-rule:evenodd;stroke:#000000;stroke-width:4px;stroke-linecap:round;stroke-linejoin:round;stroke-opacity:1"
         d="m 0,0 200,0 0,625 -200,0 z"
         inkscape:connector-curvature="0" />
      <path
         id="path3490"
         style="fill:none;fill-rule:evenodd;stroke:#000000;stroke-width:4px;stroke-linecap:round;stroke-linejoin:round;stroke-miterlimit:4;stroke-dasharray:30, 10, 2, 10;stroke-dashoffset:0;stroke-opacity:1"
         d="m 100,20 0,520"
         inkscape:connector-curvature="0" />
      <g
         id="CONTACT">
        <path
           id="path3492"
           style="fill:none;fill-rule:evenodd;stroke:#000000;stroke-width:4px;stroke-linecap:round;stroke-linejoin:round;stroke-opacity:1"
           d="m -10,75 85,0 50,-25"
           inkscape:connector-curvature="0" />
        <path
           id="path3404"
           style="fill:none;fill-rule:evenodd;stroke:#000000;stroke-width:4px;stroke-linecap:round;stroke-linejoin:round;stroke-opacity:1"
           d="m 125,75 85,0"
           inkscape:connector-curvature="0" />
      </g>
      <use
         height="100%"
         width="100%"
         y="0"
         x="0"
         id="use3408"
         xlink:href="#CONTACT"
         transform="translate(0,100)" />
      <g
         id="BOBINE">
        <path
           id="path3515"
           style="fill:none;fill-rule:evenodd;stroke:#000000;stroke-width:4px;stroke-linecap:round;stroke-linejoin:round;stroke-opacity:1"
           d="m 75,240 50,0 0,80 -50,0 z m 0,40 -85,0 m 135,0 40,0 0,100 -175,0"
           inkscape:connector-curvature="0" />
      </g>
      <use
         id="use3360"
         xlink:href="#BOBINE"
         transform="translate(0,200)"
         x="0"
         y="0"
         width="100%"
         height="100%" />
    </g>
    <g
       id="MOSFET">
      <circle
         style="fill:none;stroke:#000000;stroke-width:4px;stroke-linecap:round;stroke-linejoin:round;stroke-miterlimit:4;stroke-dasharray:none;stroke-opacity:1"
         id="circle3665"
         r="75"
         cy="0"
         cx="0" />
      <path
         style="fill:none;fill-rule:evenodd;stroke:#000000;stroke-width:4px;stroke-linecap:round;stroke-linejoin:round;stroke-opacity:1"
         d="m -40,-50 0,100 -30,0 m 50,-110 0,30 m 0,15 0,30 m 0,15 0,30"
         inkscape:connector-curvature="0"
         id="path3431" />
      <path
         style="fill:none;fill-rule:evenodd;stroke:#000000;stroke-width:4px;stroke-linecap:round;stroke-linejoin:round;stroke-opacity:1"
         d="m 40,75 0,-150 m 0,120 -60,0 m 60,-90 -60,0"
         inkscape:connector-curvature="0"
         id="path3433" />
      <path
         style="fill:#000000;fill-rule:evenodd;stroke:#000000;stroke-width:4px;stroke-linecap:round;stroke-linejoin:round;stroke-opacity:1"
         d="M -15,0 0,4 0,-4 Z"
         inkscape:connector-curvature="0"
         id="path3628" />
      <path
         style="fill:none;fill-rule:evenodd;stroke:#000000;stroke-width:4px;stroke-linecap:round;stroke-linejoin:round;stroke-opacity:1"
         d="m 0,0 12,0 0,45"
         inkscape:connector-curvature="0"
         id="path3478" />
      <path
         style="fill:#000000;fill-rule:evenodd;stroke:#000000;stroke-width:4px;stroke-linecap:round;stroke-linejoin:round;stroke-opacity:1"
         d="M 40,-13.856406 26.143594,12 53.856406,12 Z"
         inkscape:connector-curvature="0"
         id="path3480" />
      <path
         style="fill:none;fill-rule:evenodd;stroke:#000000;stroke-width:4px;stroke-linecap:round;stroke-linejoin:round;stroke-opacity:1"
         d="m 40,-13.856406 -14,0 -7,6.9999995 m 21,-6.9999995 m 0,0 14,0 7,-7"
         inkscape:connector-curvature="0"
         id="path3482" />
    </g>
  </defs>
  <use
     height="100%"
     width="100%"
     y="0"
     x="0"
     xlink:href="#LED"
     transform="translate(1900,1800)"
     style="fill:none"
     id="use3384" />
  <use
     height="100%"
     width="100%"
     y="0"
     x="0"
     xlink:href="#DIODE"
     transform="matrix(0,1,-1,0,2259.0308,869.35506)"
     id="use3386" />
  <use
     height="100%"
     width="100%"
     y="0"
     x="0"
     xlink:href="#CONDENSATEUR"
     transform="translate(1018.5356,1514.1784)"
     id="use3389" />
  <use
     id="use3402"
     height="100%"
     width="100%"
     y="0"
     x="0"
     transform="translate(3200,650)"
     xlink:href="#RELAI-BISTABLE" />
  <use
     transform="matrix(0,-1,-1,0,2064.8305,1297.9999)"
     xlink:href="#MOSFET"
     id="use3369"
     x="0"
     y="0"
     width="100%"
     height="100%" />
  <use
     id="use3528"
     transform="translate(1905.5285,1309.8507)"
     xlink:href="#RESISTANCE"
     x="0"
     y="0"
     width="100%"
     height="100%" />
  <use
     height="100%"
     width="100%"
     y="0"
     x="0"
     xlink:href="#RESISTANCE"
     transform="matrix(0,1,-1,0,1877.368,1441.9543)"
     id="use4372" />
  <path
     inkscape:connector-curvature="0"
     id="path4542"
     d="m 1286.5555,1373.2902 0,500.0001 400,0 0,-500.0001 z"
     style="fill:none;fill-rule:evenodd;stroke:#000000;stroke-width:4px;stroke-linecap:round;stroke-linejoin:round;stroke-opacity:1"
     sodipodi:nodetypes="ccccc" />
  <path
     sodipodi:nodetypes="ccccc"
     style="fill:none;fill-rule:evenodd;stroke:#000000;stroke-width:4px;stroke-linecap:round;stroke-linejoin:round;stroke-opacity:1"
     d="m 2546.791,2035.6976 0,499.9998 400,0 0,-499.9998 z"
     id="path4586"
     inkscape:connector-curvature="0" />
  <use
     height="100%"
     width="100%"
     y="0"
     x="0"
     xlink:href="#RESISTANCE"
     transform="translate(1905.5285,1629.8508)"
     id="use4455" />
  <use
     height="100%"
     width="100%"
     y="0"
     x="0"
     id="use4457"
     xlink:href="#MOSFET"
     transform="matrix(0,-1,-1,0,2524.8305,1297.9999)" />
  <use
     height="100%"
     width="100%"
     y="0"
     x="0"
     xlink:href="#RESISTANCE"
     transform="translate(2365.5285,1309.8507)"
     id="use4459" />
  <use
     id="use4461"
     transform="matrix(0,1,-1,0,2337.368,1521.9544)"
     xlink:href="#RESISTANCE"
     x="0"
     y="0"
     width="100%"
     height="100%" />
  <use
     id="use4463"
     transform="matrix(0,1,-1,0,2739.0308,1129.355)"
     xlink:href="#DIODE"
     x="0"
     y="0"
     width="100%"
     height="100%" />
  <path
     style="fill:none;fill-rule:evenodd;stroke:#000000;stroke-width:4.23333359px;stroke-linecap:butt;stroke-linejoin:miter;stroke-opacity:1"
     d="m 3200.0001,722.18337 -2300.00009,0"
     id="path3703"
     inkscape:connector-curvature="0" />
  <path
     style="fill:none;fill-rule:evenodd;stroke:#000000;stroke-width:4.23333359px;stroke-linecap:butt;stroke-linejoin:miter;stroke-opacity:1"
     d="m 3190.0000,825 -500,0"
     id="path3705"
     inkscape:connector-curvature="0" />
</svg>
