M48
INCH,TZ
T1C0.024
T2C0.030
T3C0.031
T4C0.039
T5C0.043
T6C0.047
%
G90
G05
T1
X35500Y-66750
X35500Y-68750
X36000Y-66750
X36000Y-68750
X36500Y-66750
X36500Y-68750
T2
X30118Y-72441
X30118Y-80709
X31594Y-72441
X33071Y-72441
X33071Y-79331
X35283Y-80075
X36250Y-64750
X36250Y-70750
X37250Y-64750
X37250Y-70750
X37283Y-80075
X38250Y-64750
X38250Y-70750
X39250Y-64750
X39250Y-70750
X40250Y-64750
X40250Y-70750
X41250Y-64750
X41250Y-70750
X42250Y-64750
X42250Y-70750
X43250Y-64750
X43250Y-70750
X44250Y-64750
X44250Y-70750
X45250Y-64750
X45250Y-70750
X45283Y-73075
X46250Y-64750
X46250Y-70750
X47250Y-64750
X47250Y-70750
X47283Y-73075
X47283Y-80075
X49500Y-73250
X49500Y-76250
X50500Y-73250
X50500Y-76250
T3
X48516Y-66750
X49500Y-66750
T4
X34250Y-66250
X34250Y-69250
X38500Y-67000
X38500Y-68500
X41500Y-67000
X41500Y-68500
X43000Y-67000
X43000Y-68500
X46000Y-67000
X46000Y-68500
X47500Y-69000
X49500Y-77200
X49500Y-80200
X50500Y-69000
T5
X30000Y-67000
X30000Y-68500
X33000Y-67000
X33000Y-68500
T6
X33750Y-84250
X35750Y-84250
X37750Y-84250
X40500Y-84250
X42500Y-84250
X44500Y-84250
X47250Y-84250
X49250Y-84250
T0
M30
